<svg xmlns="http://www.w3.org/2000/svg" viewBox="0 0 140 144">
<!-- SVG created with Arrow, by QuiverAI (https://quiver.ai) -->
  <style type="text/css">.cls-0 {fill:#F4B43A;}
.cls-1 {fill:#FFFFFF;}
.cls-2 {fill:none;stroke:#F4B43A;stroke-width:1.4286;stroke-miterlimit:10;}
.cls-3 {fill:#E7602D;}
.cls-4 {fill:#FEC54E;}
.cls-5 {fill:#293E49;}
.cls-6 {fill:#B96728;}
.cls-7 {fill:#293E48;}
.cls-8 {fill:#F4B43A;}</style>
  <path class="cls-0" d="m139.3 72c0 36.8-28.1 71.3-69.3 71.3-42.5 0.3-69.1-34.6-69.1-71.3 0-35 27-71.1 68.7-71 41.2-0.1 69.7 36.2 69.7 71z"/>
  <path class="cls-1" d="m135 72c0 34.6-25.9 66.7-65.3 66.7-39.1 0-65-32.1-65.1-66.7 0-32.7 26.3-66.8 65.1-66.8s65.3 34.1 65.3 66.8z"/>
  <path class="cls-2" d="m132.3 71.9c0 32.8-24.6 63.8-62.3 63.9-37.1 0.1-63.4-30.3-63.3-63.9 0-31 25.8-63.6 62.8-63.6 36.6 0 62.8 32 62.8 63.6z"/>
  <path class="cls-3" d="m43.2 62.1c2.3-6.5-1.9-9.7-2-16.1 0-3.6 3.1-7 3.1-7-0.2 7.9 6.3 9.1 6.6 15.1 1.5 2.1 4.5-0.2 1.3-5.2-1.9-3.3-3-7-1-10.4 2-3.1 7.7-6.1 4.5-13.1 9.9 4.7 2.3 10.5 4.3 12.4 1.2 1.3 4.6 1.2 4.9-3.6 0.3-4.1-3-6.4-3.1-12.3 0.1-4.3 3.7-9.5 8.6-11.2 1.8-0.6-4.6 3.7-0.9 11 1.8 2.9 4.1 5.3 4.7 9.3 2.7-5-0.9-10.5-0.9-10.4 5.2 3.1 7.7 7.4 4.6 13.3-0.9 1.9-2.3 3.5-1.4 5.5 1.6 3.7 6.4 2.8 6.5-1.6 0.1-2.4-1.2-6.4 4.4-10.1-2.3 7.2 2.3 9.7 2.2 15.1 0 5.1-4 9.4-5.5 11.6l-9 0.7c-4.8-4.1-7.6-6.7-6.1-15.5-1.6 0.9-4.5 4.6-4.5 7.8 0 3.5-0.9 8-2.8 8.5-0.7-1.9-2.2-4.7-3.5-5.9 2.2 5.8 0.2 13.8-2.1 16.6l-9.2 6.6c-7 0.4-6.6-8.6-7-12.6-0.2-1.7-0.8-3.4-0.8-3.4 1.3 0.5 3.5 2.7 4.1 4.9z"/>
  <path class="cls-4" d="m47.5 70.1c-3.9-5.5 0.9-9.1-2.1-20.3 4.1 1.7 4.4 4.2 4.8 6.2 1.2 4.6 6.3 4.6 6.3-1.9 0-4.3-5.4-9.1-2-13.6l1.5-1.7c-0.6 3.3 2.2 7.4 4.8 9.6 0.4-8.3 6.1-7.8 6.4-14.8 0.3-4.5-1.7-9.1-1.6-9.1 0.9 0.1 6 4.4 6.1 9.4 0 3.6-2.2 9.5 1.3 12.9 1.6 1.7 4.6 2 7.5-0.8l2.4-2.1c1.6-1.5 2.3-3 2.3-5.4 2.7 4.6 1.4 6.1-0.7 10.5l-3 5.6-7.8-0.2c-4-3.5-6.1-6.3-5-14.4-1.3 0.6-4.2 4.1-4.2 7.6s-0.8 7.4-2.8 8.3c-0.6-1.8-2.3-4.9-3.5-5.9 1.4 4.2 0.4 10.5-0.8 13.6l-8.5 7.9-1.4-1.4z"/>
  <path class="cls-6" d="m91.6 55.9 1.4 1.6 14-8.4c1.5-0.6 1.5-1.1 1.5-1.1-0.4-2.6-1.9-1.6-6 0.8l-10.9 6.6v0.5z"/>
  <path class="cls-6" d="m35.1 86.2c1.3-2.6 5.3-3.6 12.8-8.2l1.6-1.1 1.4-0.3 1.2 1.4-12.5 7c-1.1 0.6-4.6 1.6-4.6 1.4l0.1-0.2z"/>
  <path class="cls-5" d="m108.5 47.6c-0.4-0.2-0.1-0.5-15.8 9.3-0.2-0.5-0.6-1-1-1.4l-0.1 0.4 2 3.6 14.3-8.1c1.3-0.8 1.5-1.4 0.6-3.8z"/>
  <path class="cls-5" d="m35.1 86.2-0.1 0.2c1.1 0.5 2.6 0.6 3.7 0.2 2.4-0.6 8.2-3.6 10.9-5.2 1.9 2.8 5.3 5.5 8.9 3.8 0.6-0.2 1.1-0.7 1.5-1.2 1.9 1.1 4.6 0.9 5.6-1.5 1.9 0.9 4 0.1 5-1.1l0.1-0.4c1.9 0.5 4.8-0.4 6.2-2.8 2.7 0.2 5.6-1.1 6.8-3.7 2.9-0.1 5.2-1.9 5.7-5.1 1.2-0.3 2.3-0.4 3.3-1.9 1.3-2.1 1.4-5.4 0.8-8l-1.9-3.6-0.1-0.3c-3.4-4.2-7-6.2-12.4-3.4-2 0.2-4-0.1-6.6 2.4-1.9-0.2-3.9 0.5-5.5 2.5-2-0.1-4 1-5 3.3-2.3 0.1-4.8 1.2-6 3.4-1.9 0.4-4.3 2.3-5.4 4.2-1.2 0.5-5.1 3.5-5.1 6.1 0 2.1 0.9 3.4 1.7 4.4l2.7-1.5c1-0.6 1.2 0 1.6 1.1-7 3.8-13 7-16.4 8.1z"/>
  <path class="cls-6" d="m48 76.2c-0.4-2.1 0.6-3.8 2.1-4.1 3.4-0.4 7.4 6 4.3 10l-0.5 0.3c1-3.3-0.5-7.9-3.4-7.4-0.8 0.1-1.6 0.6-2.5 1.2z"/>
  <path class="cls-6" d="m50.6 69.9c4-1.5 7.9 1.6 9.9 7.2-1.4-2.1-2.6-3.5-4.3-4.9 1.7 2.8 2.7 6.4 1.7 9.3-0.2-6.1-3.4-11.3-7.3-11.6z"/>
  <path class="cls-6" d="m54 67.6c3.1-3 9.5-0.7 10.1 5-1.5-1.6-3.4-3.5-5.9-4.4 3.5 2.3 6 7.2 4.5 11.9 0.2-6.5-4.5-12.2-8.7-12.5z"/>
  <path class="cls-6" d="m58.7 64c5-4 11.2 2 11.4 8.1-1.1-2.5-3.9-5.6-5.6-6.7 3.1 3.5 4.4 8.7 3.5 13 0-6.9-4.4-13-9.3-14.4z"/>
  <path class="cls-6" d="m64.1 61.1c5.4-2.1 12.6 3.5 12.1 10-0.8-3.5-3.7-6.1-6.2-8.1 3.5 4.4 4.1 9.6 3.5 13.5-0.3-7.6-4.4-14-9.4-15.4z"/>
  <path class="cls-6" d="m69.7 58.4c4-3 10.9 2.1 11.4 8-1.2-1.8-2.7-3.5-4.6-5 2.2 2.6 4.5 7.6 3 12.2 0-6.2-5.1-13.6-9.8-15.2z"/>
  <path class="cls-6" d="m75.6 55.9c4.5-2.9 10.1 2.7 11.9 8.3l0.1 3.4c-0.7-3.2-3.4-6.5-6-9 2 2.8 4.3 7.5 3.5 12-0.4-6.2-4.9-12.5-9.5-14.7z"/>
  <path class="cls-6" d="m82.1 53.8c4.3-1.7 9.5 3.8 9.3 10.3-0.7-4.2-2.5-6.7-4.2-8.5 1.3 2 2.2 4.4 2 6.9-0.8-3.4-4.6-7.4-7.1-8.7z"/>
  <path class="cls-7" d="m45.1 89h4.6v1.2h-3v1h2.8v1.4h-2.8v1.3h3v1.5h-4.6v-6.4z"/>
  <path class="cls-7" d="m51.8 89h1.7l1.9 3 1.8-3h1.5v6.4h-1.5v-3.9l-1.6 2.7h-0.4l-1.7-2.7v3.9h-1.6v-6.4h-0.1z"/>
  <path class="cls-7" d="m60.7 87.2h1.5v1.2h-1.4v-1.2h-0.1zm0.1 1.8h1.6v6.4h-1.6v-6.4z"/>
  <path class="cls-7" d="m64.5 89h1.4l2.5 3.5v-3.5h1.6v6.4h-1.4l-2.7-3.9v3.9h-1.4v-6.4z"/>
  <path class="cls-7" d="m71.7 92c0-1.9 1.4-3.2 3-3.2 1.9-0.2 3.4 1.3 3.4 3.2 0 2-1.5 3.5-3.5 3.5-1.6 0-3-1.5-3-3.3v-0.2h0.1zm1.4-4.8h1.1v1.2h-1.1v-1.2zm3.5 4.8c0-1-0.6-1.8-1.7-1.8-1 0-1.8 0.7-1.8 1.8 0 1 0.8 1.9 1.6 1.9 1 0.1 1.9-0.7 1.9-1.9zm-1.4-4.8h1.2v1.2h-1.2v-1.2z"/>
  <path class="cls-7" d="m80.1 88.9h1.4l2.6 3.5v-3.5h1.4v6.5h-1.1l-2.8-4v4h-1.5v-6.5z"/>
  <path class="cls-7" d="m87.5 92.9v-4h1.4v3.6c0 0.9 0.5 1.4 1.1 1.4 0.7 0 1.2-0.4 1.2-1.3v-3.7h1.5v4c0 1.5-1.1 2.6-2.7 2.6s-2.5-1-2.5-2.6zm1-5.8h1.1v1.1h-1.1v-1.1zm1.9 0h1v1.1h-1v-1.1z"/>
  <path class="cls-8" d="m38.7 106.9c0-4.3 3.4-8.3 8.2-8.3 2.5 0 4.6 0.8 6 2.6l-2.5 3.2c-1-0.8-2-1.3-3.8-1.3-1.9 0-3.9 1.6-3.9 4 0 2.8 1.7 4.4 4.3 4.4 1.7 0 3.1-0.6 3.4-2.4h-3.3v-3.1h6.6v3.1c0 3-2.5 5.5-7 5.5-4.1 0-8-3-8-7.7z"/>
  <path class="cls-8" d="m60.4 98.9h4.5l5.2 15.5h-3.9l-1-2.4h-5.3l-0.9 2.5h-4.3l5.7-15.6zm3.7 10.2-1.5-5.2-1.9 5.2h3.4z"/>
  <path class="cls-8" d="m72 98.9h3.9v12.5h6.3v3.1h-10.2v-15.6z"/>
  <path class="cls-8" d="m89.2 98.9h4.5l5.7 15.5h-4.2l-1.1-2.3h-5.2l-1 2.4h-4.2l5.5-15.6zm3.9 10.2-1.6-5.2-1.9 5.2h3.5z"/>
  <path class="cls-7" d="m39.6 117.4h1.9v3l2.6-3h2.3l-2.8 3.2 2.9 4h-2.3l-2-2.6-0.8 0.9v1.8h-1.9l0.1-7.3z"/>
  <path class="cls-7" d="m47.5 121c0-1.5 1.5-3.9 4-3.9 1.9 0 3.9 1.5 3.9 4s-2 3.6-3.9 3.6-4-1.1-4-3.7zm6.1 0c0-1.1-0.9-2.4-2.1-2.4-1.4 0-2 1-2 2 0 1.4 0.7 2.4 2.1 2.4 1.3 0 2.1-0.8 2-2z"/>
  <path class="cls-7" d="m57.5 117.4h1.9v2.7l2.3-2.7h2.2l-2.7 3.3 2.7 3.9h-1.8l-2-2.6-0.9 0.7v1.9h-1.7v-7.2z"/>
  <path class="cls-7" d="m64.7 121c0-2 1.8-3.9 3.8-3.8 2.4 0 3.7 1.8 3.9 3.7 0.1 2.6-1.7 3.8-4 3.8-1.8 0-3.7-1.3-3.7-3.7zm5.8 0c0-1.1-0.9-2.3-2-2.3s-2 0.8-2 2.2c0 1.1 1 2.2 2.1 2.2 1.3 0 1.9-0.9 1.9-2.1z"/>
  <path class="cls-7" d="m74.2 117.4h3.4c1.8 0 2.8 1.1 2.8 2.6 0 0.9-0.4 1.6-1.5 2l1.5 2.6h-1.9l-1.4-2.4h-1.1v2.4h-1.8v-7.2zm3.2 3.3c0.6 0 1.1-0.2 1.1-0.8 0-0.7-0.6-1-1.1-1h-1.4v1.8h1.4z"/>
  <path class="cls-7" d="m83.2 117.4h4.7v1.3h-2.8l-0.2 0.9 2.7 0.3v1.6h-2.7v1.6h3v1.5h-4.7v-7.2z"/>
  <path class="cls-7" d="m93.1 124.6c-1.5-0.2-2.9-1.7-2.9-3.6 0-2 1.4-3.8 3.7-3.8 1 0 2 0.3 2.7 1l-1 1.5c-0.5-0.5-0.9-1-1.7-1-1 0-2 0.9-2 2.3 0 1 1 2.1 2.1 2.1 0.7 0 1.4-0.5 1.7-0.9l0.9 1.2c-0.4 0.6-1 1.1-2 1.2 0.9 0.5 0.6 2.3-0.9 2.3-0.6 0-1.1-0.3-1.3-0.5l0.7-1.8z"/>
</svg>