<svg xmlns="http://www.w3.org/2000/svg" viewBox="0 0 82 127">
<!-- SVG created with Arrow, by QuiverAI (https://quiver.ai) -->
  <style type="text/css">.cls-0 {fill:#FFFFFF;}
.cls-1 {fill:#F4F4F4;}
.cls-2 {fill:#C93827;}
.cls-3 {fill:#FAA629;}
.cls-4 {fill:#FCD78B;}
.cls-5 {fill:#052136;}
.cls-6 {fill:#8C4721;}
.cls-7 {fill:#F8ECCE;}
.cls-8 {fill:#F9A028;}</style>
  <rect class="cls-1" x=".8" width="81.7" height="127"/>
  <rect class="cls-0" x=".8" width="81.6" height="126.8"/>
  <path class="cls-2" d="m7.2 50.4-0.1-0.3c2.6 1.1 3.9 3.4 4.6 5.2 3.1-9.2-5.3-14.2 1-24.3 0.2 8.2 6.2 9.7 6.7 15.4 0.2 1.8 2.9 1.6 2.6-1-0.4-3.3-4-5.6-3.8-11.4 0.3-5.6 8.9-7.9 6.9-16.1l-1-1.7c8.8 4.4 4.2 9.8 3.9 12.3-0.4 2.8 3.7 3.3 5.3-0.1 0.8-1.8 0.7-4.4-0.4-6.8-2.4-5.3-3.4-10.4-0.3-14.7 2.6-3.6 4.7-5 7-5.7-5.9 8.3-0.2 12.2 2.6 17 1 1.6 1.4 2.9 0.4 5.3 1.4-2.6 3.7-6.6-0.1-12.3 7 4.4 8.2 8.8 4.6 15.4-0.8 1.5-2 3.4-0.8 5.4 2 3.4 6.3 2.1 6.2-2.4v-3c0-2.9 2.1-6 4.4-7.8-1 2.7-0.7 6.2 0.3 8.8 1.6 4 2.5 5.5 2.1 9-0.4 3.6-4.1 9.1-6.4 10.3l-31.2 19.5c-7.2 1.3-11.3 2.2-13.1-4.3-1.1-3.7-0.6-9-1.4-11.7z"/>
  <path class="cls-3" d="m24.4 30.8c-0.7 3.8 2.7 8.1 5.3 9.9 0.1-7.3 4.6-8 6-12.6 0.9-3.2 0.8-7.7-1.1-12.6 2.3 1.2 5.8 5.1 6.3 8.5 0.8 4-1.2 8.4-0.2 12 1.4 5 5.3 5.9 8.6 3 3.6-3 5.6-4 5.3-8.3 3.5 4.9 1 7.4-0.7 10.9-0.8 1.8-1.3 4.8-2 6.8l-31 18c-5.4-0.8-7.8-4.9-7-9.4 0.8-3.6 2.5-7.5 0-14.7 2 0.7 4.5 2.7 4.7 5.2 0.9 6.5 7.1 6.1 6.4-1.9-0.4-3.5-6.4-9.6-1.1-14.2l0.5-0.6z"/>
  <path class="cls-4" d="m26.7 42.5c1.2 3.6 1.4 6.5 0.4 12.6l16.3-7.2c-4.7-4.4-6.7-7.3-5.3-16.2-1.6 0.7-4.5 4.8-4.5 7.8 0 3.1-0.5 8.1-3 9.2-0.5-1.3-2-4.8-3.9-6.2z"/>
  <path class="cls-5" d="m71.9 113.1h0.4-0.2l0.3 0.1h-0.1 0.2l-0.1-0.1h-0.1-0.2 0.3-0.1 0.2-0.1-0.1-0.1 0.2-0.1 0.2-0.6z"/>
  <path class="cls-5" d="m72.2 113.1h0.3-0.1-0.2 0.2z"/>
  <path class="cls-5" d="m72.5 113.1h-0.1-0.2 0.2 0.1z"/>
  <path class="cls-5" d="m72.5 113.1h-0.3 0.3z"/>
  <path class="cls-5" d="m65.4 93.9h-1-3.7c2.4 0 3.4-2 3.3-2 0.5-0.7 0.1 0 0 0 0.5-0.8 0.1 0 0 0 0.5-0.8 0.1 0 0 0 0.5-0.8 0 0 0 0 0.5-0.8 0 0 0 0 0.5-0.8 0 0 0 0 0.5-0.8 0 0 0 0 0.5-0.8 0 0 0 0 0.5-0.8 0 0 0 0l0.5-0.9-0.5 0.9c0.6-0.9 0.7-1.5 0.7-2.5v-6.5h-1.7v-2h-6.5v2h-4.1l-0.3 0.6-0.5-0.7h-3.7v1.4l-0.4-0.6v-2.7h-6.4v2.9l-0.5 0.5v-1.5h-4.2l-0.4 0.6-0.3-0.5h-3v-2h-4.5v2h-3.3l-1.1 1.8-1.2-1.8h-10.6v10.9h1.3c-3.7 0.4-8.2 3.7-8.4 9.1-0.1 4 2.2 8.5 7 10.1l-5.6 0.1v10.8h5.1l0.3-0.6 0.4 0.6h5.1l-0.2-0.6c1 0.6 2.1 0.8 3.1 0.8 1.7 0 3.3-0.7 4.3-2.1l-0.1 1.9h5.1l0.2-0.6 0.5 0.6h4.9l-0.2-0.7c0.9 0.5 1.9 0.8 2.9 0.8 1.8 0 3.4-0.6 4.3-1.9v1.8h4.4l0.7-0.1 0.3 0.1h11.8v-2.4c0.5 0.6 1.2 1.2 1.7 1.6l-0.3 1.6c0.8 0.7 1.9 1.3 3 1.3 2 0.1 3.1-1.3 3-2.6 0.9-0.4 1.6-1.2 2.1-1.8l-0.3-0.7-1-2.7 0.8-1.1 0.4-1.7c-0.7-1-1.9-2-3.1-2.3h6.8l-7.9-19.2z"/>
  <path class="cls-5" d="m79.9 37.7c-1.5-0.7-3.2 0.3-5 1.3l-14.2 8.2c-2.8-3.3-6.6-5.3-12-2.5-2.2 0-4.3 0.2-6.8 2.5-2.3-0.1-4.3 1-5.7 2.7-2.3 0-4.3 1.1-5.5 3.7-1.8 0-4.5 0.8-6.1 3.3-2.1 0.5-4.6 2.2-5.5 4.5-2.1 0.8-5 3.1-5 6.8 0 1.2 0.3 2.3 0.9 3.3l-10.1 5.7c-1.2 0.7-2.3 1.2-2.9 2.4-1.1 2.3 1.7 2.3 4 1.8 1.9-0.5 8.1-3.8 12.1-5.8 3.5 5.4 8.5 5.8 10.6 2.8 1.8 1 4.7 0.6 5.8-1.5 2 0.6 4 0 5.4-1.7 2.2 0.4 5.1-0.5 6.5-2.7 2.5 0.1 5.6-1 7-4.1 2.5 0 5.5-1.8 5.7-5.5 1.1-0.3 2.3-0.3 3.3-1.4 1.3-1.8 2.2-4.9 1-9l14.3-8c1.8-1 2.7-1.5 2.9-2.6 0.4-1.7-0.1-3.7-0.7-4.2z"/>
  <path class="cls-6" d="m51.7 46.4c4.3-1.4 8 1.8 9.3 6 0.5 1.6 0.7 3.3 0.1 5-0.1-3.3-2.6-8.5-4.5-9 1.4 1.7 2.5 5.2 2.1 7.2-0.8-3.4-4.7-8.2-7-9.2z"/>
  <path class="cls-6" d="m44.9 48.5c4.5-2.5 8.5 1.9 10.6 5.5 1.2 2.1 2.1 5 1.6 7-0.5-3.1-3.1-7.1-5.9-9.3 2.3 3 4.2 7.8 3.4 12.4-0.4-5.6-4.1-12.6-9.7-15.6z"/>
  <path class="cls-6" d="m38.9 51.4c3.1-2 6.5-0.7 9.5 2.7 1.3 1.6 2.6 4 2.2 5.5-0.6-1.2-3-4-4.2-5 2.1 3 4 7.4 2.9 12.8-0.4-8.4-6.1-14.8-10.4-16z"/>
  <path class="cls-6" d="m33.1 54.4v0.1c4.8-1.5 7.8 1.1 10 3.5 1.6 2 3 4.9 2.6 7-0.6-3.1-4.2-7.1-6.3-8.5 2.6 3 4.6 8.7 3.2 14.1 0.3-6-3.1-14.1-9.5-16.2z"/>
  <path class="cls-6" d="m27.6 57.4c3.9-3.4 8 0.2 9.5 2.2 1.4 1.9 2.6 4.4 2.3 6.4-1.4-3.6-3.7-5.6-5.8-7.3 2.9 3.2 5.3 7.9 3.6 14 0.4-7.3-4.1-13.7-9.6-15.3z"/>
  <path class="cls-6" d="m22.3 61.1c3.1-3 7.3-0.7 9.1 1.5 1 1.3 1.7 2.9 1.6 3.9-1.1-1.5-3.9-3.9-6.1-4.8 2.5 1.9 6.5 7.4 4.7 12.8 0.5-5.9-3.9-12.9-9.3-13.4z"/>
  <path class="cls-6" d="m19.3 63.5c3.9-1.6 8.8 2.4 10 7.6-0.8-1.5-3.2-4-4.6-5.2 1.5 2.1 3 7.1 1.5 10 0.5-4-2.5-11.9-6.9-12.4z"/>
  <path class="cls-6" d="m16.5 66.4c1.9-1.8 5.4 0.5 6.7 4 0.9 2.6 0.3 5.5-1 6.1 0.7-2.4 0-7-2.8-7.6-1-0.2-2.3 0.5-3 1.2-0.4-1.2-0.5-2.7 0.1-3.7z"/>
  <path class="cls-6" d="m18.6 71.1 1 1c-2.9 1.4-13.7 7.8-16.1 8.1-0.4-0.6 2-2.2 3.4-2.8l11.7-6.5z"/>
  <path class="cls-6" d="m61.4 48.1 13.8-7.9c1.7-0.8 3.4-2.3 4.3-1.3 0.4 0.5 0.6 2.1-0.1 1.6-0.5-0.4-9.9 5.4-17 9.4l-1-1.8z"/>
  <path class="cls-2" d="m79 40.1"/>
  <path class="cls-5" d="m66.1 39.6"/>
  <path class="cls-7" d="m13.7 84.7h4.6v1.5h-2.9v1.3h2.7v1.5h-2.7v1.4h2.9v1.6h-4.6v-7.3z"/>
  <path class="cls-7" d="m20.3 84.6h1.6l1.8 3.5 2-3.5h1.7v7.5h-1.7v-4.4l-1.8 3.2h-0.3l-1.7-3.2-0.1 4.2h-1.5v-7.3z"/>
  <path class="cls-7" d="m29.7 82.6h1.5v1.4h-1.5v-1.4zm0 2.1h1.6v7.3h-1.6v-7.3z"/>
  <path class="cls-7" d="m33.5 84.6h1.5l2.4 4v-4h1.6v7.4h-1.4l-2.6-4.3v4.2h-1.5v-7.3z"/>
  <path class="cls-7" d="m40.9 88.4c0-2 1.5-3.8 3.3-3.8 2 0 3.5 1.5 3.5 3.6 0 2-1.5 3.9-3.5 3.9-1.8 0.1-3.3-1.6-3.3-3.7zm1.6-5.9h1.4v1.3h-1.4v-1.3zm3.6 5.9c0-1-0.7-2-1.9-2-1 0-1.7 0.7-1.7 2 0 1 0.7 2 1.9 2 1 0 1.7-0.8 1.7-2zm-1.5-5.9h1.3v1.3h-1.3v-1.3z"/>
  <path class="cls-7" d="m49.6 84.6h1.4l2.6 4v-4h1.5v7.4h-1.2l-2.8-4.3v4.3h-1.5v-7.4z"/>
  <path class="cls-7" d="m57.1 88.9v-4.3h1.8v4.4c0 0.7 0.5 1.4 1.1 1.4s1.1-0.5 1.1-1.4v-4.4h1.4v4.4c0 1.9-1 3.1-2.8 3.1-1.6 0.1-2.6-1.1-2.6-3.2zm1.1-6.3h1.2v1.3h-1.2v-1.3zm2 0h1.2v1.3h-1.2v-1.3z"/>
  <path class="cls-7" d="m8.1 114.7h1.5v3l2.9-3h2.4l-2.9 3.3 3 4.2h-2.3l-2.1-2.8-0.9 0.7v2.1h-1.8v-7.5z"/>
  <path class="cls-7" d="m16 118.4c0-2 1.6-3.8 3.9-3.8 2.2 0 3.8 1.8 3.8 3.8 0 2.1-1.5 4-3.8 4s-3.9-1.8-3.9-4zm6 0c0-1-0.9-2-2.1-2s-1.9 1-1.9 2c0 1.1 0.9 2.1 2 2.1 1.2 0 2-0.9 2-2.1z"/>
  <path class="cls-7" d="m26 114.7h2.2v2.9l2.4-2.9h2l-2.5 3.4 2.8 4.1h-2l-2-3-0.8 0.9v2.1h-2.1v-7.5z"/>
  <path class="cls-7" d="m33.7 118.4c0-2 1.7-3.8 3.9-3.8 2.1 0 3.9 1.8 3.9 3.8 0 2.1-1.6 4-3.9 4-2.2 0-3.9-1.8-3.9-4zm6 0c0-1-0.7-2-2-2-1.2 0-2 0.8-2 2 0 1.1 0.8 2.1 2 2.1 1.3 0 2-0.9 2-2.1z"/>
  <path class="cls-7" d="m43.6 114.7h3.9c1.4 0 2.5 1 2.5 2.4 0 1-0.5 1.9-1.4 2.3l1.5 2.8h-2l-1.4-2.6h-1.2v2.6h-1.9v-7.5zm3.4 3.3c0.5 0 1-0.3 1-0.8 0-0.6-0.4-0.8-0.9-0.8h-1.5v1.6h1.4z"/>
  <path class="cls-7" d="m52.7 114.7h4.8v1.7h-3v1.1h2.9v1.4h-2.9v1.6h3v1.7h-4.8v-7.5z"/>
  <path class="cls-7" d="m64.5 122.4c-2-0.3-4.5-1.9-4.5-4 0-2 1.5-3.9 3.7-3.9 1 0 2 0.4 2.8 1.1l-1.1 1.5c-0.4-0.5-0.9-0.7-1.5-0.7-1 0-2 1-2 2 0 1.1 0.7 2.1 1.8 2.1 0.7 0.1 1.3-0.1 1.8-0.9l1.1 1.3c-0.5 0.7-1.4 1.3-2.2 1.5 0.7 0.5 0.5 2-0.9 2-0.5 0-1-0.3-1.1-0.5l0.3-1.2c0.3 0 0.5 0.2 0.7-0.2l1.1-0.1z"/>
  <path class="cls-8" d="m6.7 103.5c0-4.6 3.4-8 8.8-8 2.5 0 4.6 1 5.9 2.4l-2.7 3.1c-1-1-2.2-1.5-3.5-1.5-2.2 0-4.1 1.5-4.1 4.1s1.9 4.4 4.4 4.4c1.6 0 3.1-0.9 3.2-2.3l-3-0.1v-3.2h6.5v2.7c0 3.6-2.6 6.6-7 6.7-4.7 0.2-8.5-3.2-8.5-8.3z"/>
  <path class="cls-8" d="m29.2 95.7h4.5l5.7 15.7h-4l-1-2.8h-5.7l-1 2.9h-4.5l6-15.8zm3.9 9.7-1.6-5.2-1.8 5.2h3.4z"/>
  <path class="cls-8" d="m41.2 95.7h4.2v12h6.3v3.7h-10.5v-15.7z"/>
  <path class="cls-8" d="m58.9 95.7h4.5l6.1 15.7h-4.4l-1.1-2.8h-5.5l-1 2.8-4.1 0.1 5.5-15.8zm4 9.7-1.8-5-1.7 5h3.5z"/>
  <path class="cls-6" d="m61.4 48.2 0.1 1.9 0.9 5.3-0.3 2c0.5-2.3-0.6-7.5-5.4-9.2h4.7z"/>
</svg>