<svg xmlns="http://www.w3.org/2000/svg" viewBox="0 0 150 155">
<!-- SVG created with Arrow, by QuiverAI (https://quiver.ai) -->
  <style type="text/css">.cls-0 {fill:#F2B136;}
.cls-1 {fill:#0A171D;}
.cls-2 {fill:none;stroke:#F2B136;stroke-width:1.6396;stroke-miterlimit:10;}
.cls-3 {fill:#F16826;}
.cls-4 {fill:#FEBF4C;}
.cls-5 {fill:#2B1C1C;}
.cls-6 {fill:#D05127;}
.cls-7 {fill:#F4EAC7;}
.cls-8 {fill:#F1692A;}</style>
  <path class="cls-0" d="m149.3 77.2c0 41.6-31.6 76.9-74.3 76.9-43.5 0-74.2-35.3-74.2-76.9 0-38.4 30.8-76.2 74.1-76.2 41 0 74.4 37.3 74.4 76.2z"/>
  <path class="cls-1" d="m144.8 77.3c0 39.2-29.5 71.4-70.2 71.4-39.5 0-69.6-32.2-69.6-71 0-36 29.8-72.1 69.5-72.1 38.4 0 70.3 33.5 70.3 71.7z"/>
  <path class="cls-2" d="m142.8 77.3c0 37.2-28.3 68.4-68.2 68.4-39.1 0-67.9-31.2-67.9-68.4 0-34.2 29.3-68.4 67.8-68.4 36.9 0 68.3 31.7 68.3 68.4z"/>
  <path class="cls-3" d="m49 41.8"/>
  <path class="cls-3" d="m48.9 41.9"/>
  <path class="cls-3" d="m47.8 66.7"/>
  <path class="cls-3" d="m91.6 56.6c1.8-2.4 4.8-6.3 4.7-11-0.2-5-4.2-8.1-2.4-15.6-2.5 1.5-4.6 4.3-4.7 7.1-0.1 3.1 0.9 7.4-3.7 7.5-2 0-4.4-2.8-3.4-5.7 0.8-2.3 3-4.7 2.8-8.4-0.3-4.6-6.2-8.3-6.2-8.3 3.1 4.8 2.5 8.1 1 11.2-1.1-5.8-6.6-8.9-6.7-14.3-0.1-3.1 1.3-5.1 2.7-7.6-2.3 0.7-3.9 1.8-5.3 3.3-2.2 2.3-4.4 5.3-3.9 10.2 0.4 2.9 1.5 5.6 2.6 8.2 1.5 3.4 0.3 8.4-3.1 8.1-4.9-0.5 0.8-5.4-1.6-10-1.1-2-3.6-3.4-4.6-4 1.1 1.9 1.4 4.3 0.5 6.9-1.6 4.2-6.7 5.8-6.8 10.8-0.2 6.3 4.9 9.1 3.8 12.8-0.4 1.3-2.4 1.6-2.6 0-0.8-5-6.7-6.6-7.1-15.8-1.6 1.8-3.4 4.9-3.4 8 0.2 5.3 3.3 8.2 2.7 13.3-0.1 1-0.2 2-0.4 3.2-0.8-2.7-3.6-4.8-4.6-5.1 1.6 3.5 0 16.5 6.7 17.1l6.2 1 36.1-21.6 0.7-1.3z"/>
  <path class="cls-4" d="m70.4 26.5c1.7 3.8 2.9 10.9-0.3 15.2-2.1 2.7-4.5 4.5-4.6 10.5-4.3-3.3-5.8-8.3-5.3-10.5-1.8 1.4-3.3 3.8-2.7 6.5 0.8 3.3 3.5 5.8 3.2 10.3-0.4 5.9-5.7 6.9-6.9 1.5-0.5-3.8-2.6-5.2-5-6.3 3 9.1 0 11.5 0 16.2 0 3.1 2 6.1 3.6 6.7l26.9-18.4c-2.8-2.2-6.8-5.8-5.3-15.5-2 1.2-4.6 5.3-4.6 7.9 0 2.8-0.2 7.9-3 9.3-0.5-2-2.1-4.7-3.7-6.1 1.7 6.9 0 12.7-0.8 14.9l25.6-11.2 4.9-8.6c1.5-3.4 0.5-5-0.8-7.5 0 3.6-1.4 4.6-2.9 5.9-2.2 1.8-4 4.4-7.3 4.3s-5.3-3.3-5-8.1c0.2-3.6 1.4-6.2-0.1-9.6-1-2.4-3.7-5.9-5.9-7.4z"/>
  <path class="cls-5" d="m116.8 51.3c-0.4-1.6-1.1-2.3-5 0.1l-13.3 8.1 1 2.1 14.6-8.6c2.2-1.3 2.4-1.8 2.7-1.1 0.6 1.6 0.8 2-1 3.1l-15.3 8.8c0.8 3.5 0.5 10.3-4.5 10.7-0.5 3.4-2.5 5.1-6.1 5.5-1.4 3-4.3 4-7.2 4-1.6 2.2-4.2 3.3-6.8 2.9-1.1 1.8-3.4 2.5-5.5 1.8-1.3 2.3-4 2.7-5.9 1.6-2.6 3-7.4 2.8-11.1-2.7-3.1 1.5-9.8 5-12.4 5.7-0.6 0.1-3.4-0.3-3.5-0.6 2.6-1.6 14.1-7.6 17.5-9.6l0.2-0.3v-0.3l0.4 1.4-0.6-0.4c-2.7 0.8-3.9 0-5-2.2-1.4-3.9 2.1-6.9 4.6-8.4 0.8-1.6 3.3-4 5.6-4.4 1.3-2 3.4-3.4 6.3-3.6 1.1-2 3-3.5 5.5-3.5 1.4-1.8 3.7-2.7 5.9-2.7 1.7-1.7 3.7-2.6 7-2.5 5.6-3.2 10.2-1.7 13.6 3.3 1 1.5 1.9 4.3 2 4.3l15-8.3c2-1.2 2.1-1.6 1.3-4.2z"/>
  <path class="cls-6" d="m99.4 61.3-0.9-1.7 13.3-7.9c3.9-2.2 3.9-2.8 4.7-1.5l0.1 0.9c-0.2-0.2-0.9-0.1-2.5 0.9l-14.7 9.3z"/>
  <path class="cls-6" d="m37.6 92.7c1-1.4 1.9-2.3 3.1-3l12.9-7.2 0.5-0.1 1 1.5-13.2 7.1c-1 0.6-3.5 1.7-4.3 1.7z"/>
  <path class="cls-6" d="m51.5 81.8c-0.9-3.9 3-6.4 6.4-2.4 2.6 3.1 2.9 7.7-0.1 9 1.1-2.3 0.3-8-3.2-7.9-1.2 0.1-2.3 0.6-3 1.3h-0.1z"/>
  <path class="cls-6" d="m54.6 75.1c4.1 0.3 7.9 6.8 7.5 12.5 1.5-2.7 0.3-6.9-1.6-9.7-1.4-2-3.6-3.3-5.9-2.8z"/>
  <path class="cls-6" d="m57.9 72.8c4-0.2 9.7 5.1 9.4 13.4 2.1-6.3-2.8-11.7-6.2-13.2-0.4-0.1-2-0.6-3.2-0.2z"/>
  <path class="cls-6" d="m63.3 68.7c3.8 0.3 10.4 5.7 9.8 15.4 2.3-6.1-1.6-12.2-6-14.5-1-0.6-2.6-1-3.8-0.9z"/>
  <path class="cls-6" d="m68.8 65.6c4.8 0.6 10.1 8 10 16.5 1.2-5.2-0.7-11.2-4.9-14.5-1.5-1.1-3-2.2-5.1-2z"/>
  <path class="cls-6" d="m74.9 62.7c4.4 0.9 10.6 8.4 10.7 16.4 1.1-4.5-0.2-9.4-3.1-12.7-1.6-1.9-4.9-4.5-7.6-3.7z"/>
  <path class="cls-6" d="m81.1 59.9c4.5 1.7 9.3 7.6 10.3 16.1 1.2-6.4-2.5-11.9-6.8-15-0.7-0.5-2.7-1.6-3.5-1.1z"/>
  <path class="cls-6" d="m88.2 57.6c2.7 0.9 7.4 6 7.7 9.4 0-2.4-1.3-5.4-2-7 2.7 2.4 3.7 5.9 4.3 9 1.2-4.9-4.3-13.4-10-11.4z"/>
  <path class="cls-6" d="m55 74.6c4.9-2 10 3.3 10.1 8l-4.6-5.2c1.1 2.3 2.9 6 1.4 7.7 0.2-3.5-3.2-9.7-7.3-10.1l0.4-0.4z"/>
  <path class="cls-6" d="m58.1 72.6c2.6-3.5 10.5-1.2 10.8 5.5-1.4-2-3.9-4.1-6.3-4.8 3 2.1 5.8 6.6 4.8 10.7-0.7-4.1-3.8-10.9-9.5-11.3l0.2-0.1z"/>
  <path class="cls-6" d="m63.5 68.6c5-4.1 11.9 2 12 8.9-1.4-2.8-3.6-5.9-6.1-7.4 3.1 3.8 5.2 8 4 12.8-0.8-6.3-5-12.9-10-14.2l0.1-0.1z"/>
  <path class="cls-6" d="m69 65.6c5.7-2.2 12.6 3 12.9 11-1.3-3.9-4.3-7-6.5-9 3.5 4.5 4.6 10.1 3.5 14.8-0.5-7.3-4.8-15.7-10.2-16.8h0.3z"/>
  <path class="cls-6" d="m75.5 62.5c5.1-3.4 11.9 3.6 11.7 8.6-1.3-1.7-3.2-4.1-4.8-5 3.1 4 4.3 8.9 3.2 13-0.2-6.2-4.2-14-10.6-16.4l0.5-0.2z"/>
  <path class="cls-6" d="m81.4 59.7c5.3-2.6 12.1 4.7 12.7 13-1-4.1-4.2-7.7-6.5-9.8 3.5 5 4.8 10.5 3.8 13.1 0.1-5.5-5-14.5-10.3-16.1l0.3-0.2z"/>
  <path class="cls-7" d="m48.5 95.4h5.1v1.5h-3.2v1h3v1.5h-3v1.3h3.2v1.7h-5.1v-7z"/>
  <path class="cls-7" d="m55.6 95.5h1.9l2 3 2-3h1.6v6.9h-1.6v-4.2l-1.9 2.9h-0.2l-1.9-3v4.3h-1.9v-6.9z"/>
  <path class="cls-7" d="m65.3 93.6h1.6v1.4h-1.6v-1.4zm0 1.9h1.6v6.9h-1.6v-6.9z"/>
  <path class="cls-7" d="m69.2 95.5h1.7l2.6 3.6v-3.6h1.6v6.9h-1.4l-2.8-4.3v4.3h-1.7v-6.9z"/>
  <path class="cls-7" d="m76.9 98.7c0-1.8 1.2-3.5 3.5-3.5 2.2 0 3.5 1.5 3.5 3.5s-1.3 3.7-3.5 3.7c-2.2 0.2-3.5-1.7-3.5-3.7zm1.7-5.1h1.4v1.1h-1.4v-1.1zm3.6 5.1c0-1-0.6-2-1.8-2-1.3 0-1.8 0.9-1.8 1.9 0 1.1 0.6 2 1.9 2 1.1 0.1 1.7-0.7 1.7-1.9zm-1.5-5.1h1.3v1.1h-1.4v-1.1h0.1z"/>
  <path class="cls-7" d="m86 95.5 1.6-0.1 2.8 3.7v-3.7h1.5v7h-1.3l-2.8-4.3v4.2h-1.8v-6.8z"/>
  <path class="cls-7" d="m93.9 95.4h1.7v4c0 0.7 0.5 1.2 1.3 1.2 0.7 0 1.1-0.5 1.1-1.2v-4h1.6v4.5c0 1.5-1.1 2.6-2.7 2.6-1.8 0.1-3-0.9-3-2.8v-4.3zm1.2-1.9h1.4v1.2h-1.4v-1.2zm2 0h1.1v1.2h-1.2v-1.2h0.1z"/>
  <path class="cls-7" d="m42.5 125.9h2.1v3.2l2.8-3.2h2.5l-3.1 3.6 3.3 4.5h-2.5l-2.1-3-0.9 0.9v2.1h-2.1v-8.1z"/>
  <path class="cls-7" d="m51.1 130c0-2 1.4-3.9 4.3-4.4 2.5 0 4.2 1.9 4.2 4.3 0 2.2-1.7 4.2-4.2 4.2-2.8 0-4.3-1.7-4.3-4.1zm6.6-0.1c0-1.2-0.8-2.4-2.2-2.4-1.5 0-2.1 1.1-2.1 2.2 0 1.3 0.7 2.4 2.2 2.4s2.1-0.7 2.1-2.2z"/>
  <path class="cls-7" d="m61.8 125.9h2.1v3.1l2.6-3.1h2.1l-2.6 3.7 2.7 4.4h-2.1l-2-3.1-0.8 0.7v2.4h-2.1v-8.1h0.1z"/>
  <path class="cls-7" d="m69.6 129.9c0-2 1.5-4.3 4-4.3 2.4 0 4 1.8 4 4 0 2.4-1.5 4.5-4.1 4.5-2.4 0.1-3.9-1.7-3.9-4.2zm6.3 0c0-1.2-0.9-2.3-2.3-2.3-1.2 0-2 1-2 2 0 1.4 0.8 2.5 2.1 2.5 1.4 0 2.2-0.7 2.2-2.2z"/>
  <path class="cls-7" d="m79.6 125.9h4c1.5 0 2.8 1.1 2.8 2.7 0 1-0.5 1.9-1.5 2.4l1.6 3h-2.1l-1.5-2.8h-1.3v2.8h-2v-8.1zm3.5 3.7c0.8 0 1.1-0.2 1.1-0.9s-0.3-1.1-1.1-1.1h-1.5v2h1.5z"/>
  <path class="cls-7" d="m89.4 125.7h5v1.8h-3v1.4h2.8v1.7h-2.8v1.4h3.1v2h-5.1v-8.3z"/>
  <path class="cls-7" d="m96.9 129.7c0-1.8 1.5-4.1 4-4.1 1.7-0.1 2.6 0.5 3.1 1.3l-1.3 1.6c-0.5-0.6-1-1.1-1.7-1.1-1.1 0-2.3 1-2.3 2.3 0 1.4 1 2.4 2.3 2.4 0.6 0 1.2-0.4 1.7-1.1l1.2 1.5c-0.4 0.6-1 1.2-2.2 1.5l0.3 0.7c0.4 1.9-2.1 2.2-2.9 0.9l0.5-1.5c-1.7-0.5-2.7-2.1-2.7-4.4z"/>
  <path class="cls-8" d="m41.6 115.1c0-4.2 2.8-9.2 8.9-9.2 2.5 0 5 1 6.4 2.8l-2.9 3.7c-1.1-1.3-2.5-1.7-4-1.7-2.9 0-4.1 2.4-4.1 4.4 0 2.5 1.7 4.4 4.5 4.4 1.6 0 3.6-0.5 3.6-2.4h-3.3v-3.2h7.2v3c0 3.6-2.5 6.2-7.5 6.2-4.8 0.3-8.5-3.5-8.8-8z"/>
  <path class="cls-8" d="m65 106.1h4.6l5.9 16.8h-4.4l-1-2.8h-5.6l-1 2.8h-4.6l6.1-16.8zm3.9 11-1.8-5.5-1.6 5.5h3.4z"/>
  <path class="cls-8" d="m77.4 106.1h4.1v13.3h7v3.5h-11.1v-16.8z"/>
  <path class="cls-8" d="m95.9 106.1h4.7l6.1 16.8h-4.3l-1.2-2.8h-5.8l-1 2.9h-4.4l5.9-16.9zm4.1 11-1.8-5.5-1.8 5.5h3.6z"/>
</svg>