<svg xmlns="http://www.w3.org/2000/svg" viewBox="0 0 120 190">
<!-- SVG created with Arrow, by QuiverAI (https://quiver.ai) -->
  <style type="text/css">.cls-0 {fill:#152026;}
.cls-1 {fill:#F3E6CA;}
.cls-2 {fill:#E94E24;}
.cls-3 {fill:#F26722;}
.cls-4 {fill:#F26922;}</style>
  <rect class="cls-0" width="119.7" height="190"/>
  <path class="cls-1" d="m62.9 17.5c3.3 1.5 6.3 4.5 8 7.5 1.9 3.6 1.9 7.7 0.1 11.6-1.8 4.2-3.9 5.9-3.7 9.5 0.2 2.7 2.1 5.5 4.9 5.1 5.4-0.7 5-6.1 4.8-9.1-0.3-4.8 1.4-9.9 7.2-13.7-1.7 3.7-2.3 7.9-0.5 12.1 2.2 4.9 5.1 8.5 4.7 14-0.3 4.7-2.3 7.5-4 10.9-2.2-0.8-4.9-1.1-8.1-0.2l-3.1 1.1c-1.5-7.1-5.6-14.2-9-18.7l-12.3-4c-2.3-3.7-4.5-7.2-5.7-10.9-2.7-7.5-5.7-15.6 3-25.3 2.2-2.4 5-5 9.4-5.9-3.6 4.4-4.7 8.7-3.7 12.9 1.7 6.8 7.8 9.5 9.7 19.2 1.2-2.7 3.4-8.5-1.6-16.1"/>
  <path class="cls-2" d="m84.2 28.8c-5.5 3.9-7.2 8.3-6.8 13.7 0.2 3 0.4 7-3.8 8.5-3.2 1.1-5.9-1.4-6.3-4.5-0.4-4 2.3-6 4.1-10.6l-7-2.3c-1.9-7.7-7.3-10.7-9.2-17.1l7.8 1c4.6 7.1 3.1 12.1 1.6 16.1-1.9-7.7-7-10.7-9.2-16.5-1.8-4.5-1.8-9.5 2.7-15.6-3.5 0.9-6 2.5-8 4.7-9 9.3-5.2 17.9-3 23.2 1.3 3.5 2.5 6.1 2.1 9.5-0.2 3.2-2.2 6.7-5.1 7-2.6 0.3-4.5-0.7-4.2-2.9 0.3-2.4 2.2-5.1 2.1-9.4-0.1-4.1-3.1-7.4-7.6-9.2 2.1 3.5 2.1 7 0.3 10.8-2.6 5.3-9.1 8.4-9.5 15.4-0.2 4.6 1 7.8 3.9 12.4 1.4 2.2 2.8 6.1 0 6.9-1.2 0.3-2.2-0.3-2.4-2-0.7-7-8.6-9.5-9.1-20.7-2.5 3-4.6 6.8-4.6 10.7 0 6.7 3.5 9.8 3.9 16.1 0.1 2.9 0.1 5.6-1.3 8.4-0.7-2.9-3.5-5.8-6-7.5 1.4 3.7 1.4 7.3 1.4 9.7 0.1 5.9 2.1 12.3 8.1 15.9l4.3-5.6 28.6-51.3-0.3-0.5-2.3-4.1c1.6-6.8-5.4-11.6-4.4-21.5l19.6 22.5 8.9 9 1.4 1.1c1.6 2.9 1 6.8-2 9.3l1 6.8 9.8-0.6 0.4 0.1c2.5-4.3 4.4-7.2 4-13.7-0.6-7-7.9-12.9-3.9-23.9v0.7z"/>
  <path class="cls-3" d="m73.9 66.2c-1-4-1.7-6.2-3.4-9.2l-9.4-11.5c-0.7 4.7-3 7.1 0.4 12.4 2.2 3.5 5.9 4.2 9 3.1l3.4 5.2z"/>
  <path class="cls-3" d="m60.7 34.9c-1.5-4.3-5.1-8.7-9.8-11.3 2.5 6 3.5 13 1.1 19.5-1.9 5-6 7.1-7.4 10.9-1 2.5-1.5 5-1.7 7.6-0.5 0.9-8.9-7.4-8.2-14.7-2.3 1.5-4.2 5.1-4.2 7.3 0 5.7 5 9.9 5.1 16.4 0 3-0.9 7.9-5.5 7.9-3.5-0.1-4.2-3.1-4.7-6.9-0.5-3.6-2.8-7-6.4-8.1 1.7 4.2 2.4 9.9 1.5 14.6-0.9 4.6-3.4 8.3-0.6 15.4l2.2 3.6 4.5-5.7c2.3-2.2 4.8-4.4 8.1-5.5l2.2-2c1.8-2 4.3-3.5 7.3-3.9 2.3-2.9 4.5-5.1 8.9-5.1l2.1-0.9c1.8-1.6 4.4-3 7.5-3l2.8-1.4 3.5-1.9 2.7-0.2c0.4 0 1.9-0.9 2.2-0.9l-3.2-6.7c-2.2 0.5-5.1 0-7-1.3-3.1-2.2-5.2-6.6-3.6-12.4 0.9-3.8 1.3-7.7 0.6-11.3z"/>
  <path class="cls-1" d="m16.4 125.7"/>
  <path class="cls-4" d="m8.9 74.9"/>
  <path class="cls-2" d="m10.2 76.2c1.9 1.7 4.3 4.3 5.4 6.3 1.8-3.6 1.5-8.5-0.1-13-2.5-6-6-12.8 2.1-22.3 0.3 11.7 9 11.8 9.5 21.8 0.3 3.1 3.9 2.4 3.9 0 0.1-4.1-5.4-8.5-5.4-16.4 0-8.6 9-12 10.1-19.5l-1.3-8.7c2.8 1 7.6 3.5 7.7 9 0.3 6.1-3.7 10.1-1.2 12 4 2.5 8.5-1.4 8.5-8.4l2.5 6.6c-2.8 6-7.8 6.8-9 16.1l-0.2 1.9c-1.1 0.9-8.7-8.1-8-14.7-8.8 7.2-2.2 13.6-0.1 19.7 1.9 5.8 0 11.8-4 11.9-8 0.1-3-11.4-11.6-15h0.1-0.1 0.1-0.1c3.4 8.4 2.1 14.1 1 18.4-1.3 4.6-2.4 8.5 1.6 14.3l-2.5 4.3c-2.9-1.5-8.1-5.1-8.1-15.9 0-3.7-0.3-6.7-1.4-9.7l0.6 1.3z"/>
  <path class="cls-4" d="m92.2 72.4 20.4-11.8c3.9-2.1 4.4-3.1 5.5-2.9 0.9 0.2-0.1 0 1.6 1.9-1.3 0.1-3 1-4.8 2l-22.5 13-0.2-2.2z"/>
  <path class="cls-2" d="m26.1 107.7h0.3v-0.1l-17.7 9.8c-2.3 1.2-4.7 2.8-6.8 3.6l1.2-1.6c0.8-1.2 2.3-2 4.1-3l19.2-10.7-0.3 2z"/>
  <path class="cls-2" d="m3.9 120.1c1.6-0.6 14.6-7.9 23.7-12.4l-1.2-1.8-19.7 11.3c-1.6 1-3.1 1.8-3.7 3.2l0.9-0.3z"/>
  <path class="cls-3" d="m66.1 72.7c3.1-2.7 10.6-3.6 16.1 5.8 4 6.9 3.9 12.1 1.5 18.9-0.3 0.6-2.1 1.1-3.7 1.3 1.6-8.7-3.9-21.8-13.9-26z"/>
  <path class="cls-3" d="m57.4 76.5c3.5-3.4 12-1.9 15.8 6 4.2 7.9 4.4 18.9 0.5 21.1l-2.1 0.5c2.9-8.6-3.7-23-14.2-27.6z"/>
  <path class="cls-3" d="m48.1 81c3.9-4.4 12.9-3 16.9 5 4 6.9 4.9 19.4-0.4 21.9l-2.4 0.6c3.3-9-2.5-20.5-9.1-25.1l-5-2.4z"/>
  <path class="cls-3" d="m39.7 85.5c3.2-2.9 9.7-3.9 14.9 3.1 4.4 6 6.9 17.9 2.1 22.1l-3.1 1.2c3.5-9.9-3.2-21.5-11.5-25.5l-2.4-0.9z"/>
  <path class="cls-3" d="m31.9 91.1c2.2-2.7 6.2-4.2 11.5-0.5 5.6 3.9 9.5 16.5 5 23-0.8 0.6-2.3 0.9-3.5 0.9 3.2-8.5-2.5-21.4-13-23.4z"/>
  <path class="cls-3" d="m26.9 94.9c5.6-2.4 10.7 0.7 13.7 7.1 1.6 3.6 2 7.9 0 11.9-0.7 1.7-2.4 2.3-4 2.6 3.3-6.9-2.5-20-9.7-21.6z"/>
  <path class="cls-3" d="m76.6 69.6c6.1-3 11 1.9 13.1 6.8 1.4 3.2 1.9 8.1 0 13.1-0.3-6.1-5.3-17.1-13.1-19.9z"/>
  <path class="cls-1" d="m16.4 125.7h7.8v2.3h-4.8v2h4.3v2.4h-4.3v2.2h5v2.6h-7.9l-0.1-11.5z"/>
  <path class="cls-1" d="m27.5 125.7h2.5l3.1 5.5 2.9-5.5h2.7v11.5h-2.5v-6.7l-2.8 5h-0.5l-2.9-5.3v7h-2.6l0.1-11.5z"/>
  <path class="cls-1" d="m42.7 122.2h2.2v2h-1.9l-0.3-2zm-0.1 3.5h2.5v11.4h-2.5v-11.4z"/>
  <path class="cls-1" d="m48.9 125.7h2.2l4.4 6.3v-6.3h2.5l0.1 11.4h-1.9l-4.8-6.6v6.6h-2.5v-11.4z"/>
  <path class="cls-1" d="m61.2 131.4c0-3.2 2.4-5.8 5.3-5.9 3.1-0.1 5.6 2.1 5.6 5.6 0 3.1-2.5 6.3-6.5 6.3-2.5 0-4.4-2.4-4.4-6zm2.7-9.2h2.1v2h-2.1v-2zm-0.5 9.2c0 1.7 1.3 3.2 3.1 3.2 1.5 0 3.1-1.1 3.1-3.1 0-1.8-1.2-3.5-3.1-3.5-1.5 0-3.1 1.1-3.1 3.4zm4-9.2h2v2h-2v-2z"/>
  <path class="cls-1" d="m75.2 125.7h2.2l4.3 6.3v-6.3h2.4v11.4h-1.7l-4.8-6.7v6.7h-2.4v-11.4z"/>
  <path class="cls-1" d="m87.4 125.7h2.6v6.9c0 1 0.6 2.4 2 2.4s1.9-1 1.9-2.3v-7.1h2.5v7.4c0 1.9-1.3 4.4-4.5 4.4-3.3 0.1-4.5-2.2-4.5-4.4v-7.3zm1.6-3.5h2.1v2h-2.1v-2zm3.5 0h2v2h-2v-2z"/>
  <path class="cls-4" d="m19.6 152.5h11v3.9c0 5.7-3.7 11.5-11.4 11.5-7.8 0.2-13.2-5.3-13.3-12.5 0-6.9 5.5-13 13.3-13 5.3 0 8.2 1.8 9.9 3.6l-3.9 4.4c-1.1-1-3.2-2.4-5.8-2.4-3.2 0-6.5 2.4-6.5 6.6 0 3.8 2.6 7.4 6.7 7.4 3.5 0 5.3-2.1 5.4-4.3l-5.4-0.1v-5.1z"/>
  <path class="cls-4" d="m42 142.6h7.2l9.5 24.8h-6.8l-1.7-4.5h-9l-1.7 4.5h-7.3l9.8-24.8zm0.7 14.8h5.7l-2.8-8.4-2.9 8.4z"/>
  <path class="cls-4" d="m61.7 142.6h7v18.9h10.2v5.9h-17.2v-24.8z"/>
  <path class="cls-4" d="m90.4 162.9-2.4 4.5h-7.1l9.6-24.8h7l10.5 24.8h-7.5l-1.8-4.5h-8.3zm4.3-13.9-3.6 8.4h5.6l-2-8.4z"/>
  <path class="cls-1" d="m7.5 172.5h3v4.9l4.1-4.9h3.6l-4.7 5.5 5.1 6.6h-3.6l-3.4-4.9-1.1 1.3v3.6h-3v-12.1z"/>
  <path class="cls-1" d="m20.4 178.6c0-3.4 2.7-6.4 6.5-6.4 3.5 0 6.1 2.8 6.2 6.3 0 3.6-2.7 6.5-6.5 6.5-3.5 0-6.2-2.5-6.2-6.4zm3.1 0c0 1.9 1.6 3.5 3.4 3.4 1.8 0 3.3-1.3 3.3-3.3 0-1.8-1.2-3.7-3.3-3.7-2 0-3.4 1.4-3.4 3.6z"/>
  <path class="cls-1" d="m36.7 172.5h3.2v4.9l4.3-4.9h3.4l-4.5 5.5 4.8 6.6h-3.4l-3.4-4.7-1.2 1.3v3.4h-3.2v-12.1z"/>
  <path class="cls-1" d="m49.5 178.5c0-3.3 2.7-6.3 6.5-6.3 3.5 0 6.1 2.8 6.2 6.2 0 3.6-2.6 6.5-6.6 6.5-3.2 0-6.1-2.4-6.1-6.4zm3.1 0c0 1.9 1.6 3.7 3.4 3.6 1.7 0 3.2-1.2 3.2-3.2 0-2.2-1.2-3.7-3.3-3.7-1.8 0-3.3 1.2-3.3 3.3z"/>
  <path class="cls-1" d="m66.1 172.5h6c2.3 0 4 1.7 4 4 0 1.6-0.9 2.9-2.2 3.5l2.3 4.6h-3.1l-2.2-4.1h-1.8v4.1h-3v-12.1zm3.1 2.5v3h2.4c0.9 0 1.5-0.8 1.5-1.5 0-0.9-0.6-1.5-1.4-1.5h-2.5z"/>
  <path class="cls-1" d="m80.2 172.5h8.2v2.7h-5.2v1.8h4.8v2.5h-4.8v2.5h5.4v2.6h-8.4v-12.1z"/>
  <path class="cls-1" d="m92 178.5c0-3.5 2.6-6.4 6.1-6.4 2.1 0 3.6 0.9 4.6 2l-1.8 2.1c-0.7-0.7-1.4-1.2-2.5-1.2-1.8 0-3.4 1.4-3.4 3.6 0 1.9 1.4 3.5 3.4 3.5 1.1 0 2.2-0.5 3-1.5l1.5 2c-0.7 1.1-1.9 2-3.7 2.3l-0.2 0.5c0.6 0.2 1.1 0.7 1.1 1.5 0 1.2-1.1 1.7-2.2 1.7-0.9 0-1.8-0.4-2-0.6l0.3-1.3c0.4 0.3 1 0.4 1.5 0.4 0.3 0 0.7-0.1 0.7-0.4 0-0.2-0.2-0.3-0.5-0.3s-0.5 0.1-0.8 0.2v-0.6l0.5-1c-3.1-0.4-5.6-2.5-5.6-6.5z"/>
  <path class="cls-3" d="m89.1 75c-2.6-3.6-6.5-7.5-12.5-5.5 4.5 1.9 11.3 10.2 11.6 21 1.5-0.6 1.9-1.1 2.3-3.1 0.5-4.4 0.1-8.9-1.4-12.4z"/>
</svg>