<svg xmlns="http://www.w3.org/2000/svg" viewBox="0 0 140 222">
<!-- SVG created with Arrow, by QuiverAI (https://quiver.ai) -->
  <style type="text/css">.cls-0 {fill:#312A20;}
.cls-1 {fill:#B94619;}
.cls-2 {fill:#E9942E;}
.cls-3 {fill:#E8AA4B;}
.cls-4 {fill:#1D1D19;}
.cls-5 {fill:#8E5D31;}
.cls-6 {fill:#D6A457;}
.cls-7 {fill:#8F371A;}</style>
  <rect class="cls-0" width="139.5" height="222"/>
  <path class="cls-1" d="m23.2 118c-3.9-0.6-10.2-4.6-10.4-16.7-0.1-4.3 0.3-8.9-1.6-13.7 4.8 2.4 6.8 6.6 7.4 8.8 2.2-4.6 1.8-10.9-0.9-16.8-3.2-6.9-4.6-14.1 2.2-23.8l0.6-0.4c0.2 6.7 2.5 10.1 4.6 12.3 2.2 2.9 6 6.1 6.6 12 0.2 2.7 1.1 3.7 3.2 3.3 2.8-0.8 1.4-5.3-1.6-10.1-4.2-6.6-5.7-14.2 1.1-22.1 4-4.7 10.3-10 7.4-19.4l-1.5-3c4.3 1.5 9 5.3 8.8 11.5-0.1 5.3-2.8 9.1-2.1 11.7 0.6 2.5 4.5 3 6.5 1.4 2.8-1.9 5.5-7.7 3.4-14-2.6-7.5-8.9-17.5-1.1-28.2 4.5-6 8.2-8 12.5-9.1-6.9 8.2-5.5 16.5 1.6 25.1 3.4 4.1 4.7 8 5.4 12.4 3.8-7.3 1.4-13.8-1.8-18.9 3.2 1.8 5.3 2.9 8.8 8.3 2.7 4.4 3.2 10.2 0.2 16l-3.2 6c-2.2 5.8 1.8 11.7 7 9 6.1-3.2 3.5-9.8 4.1-14.7 0.7-5.6 5.1-10.2 8-11.7-3.9 7.7-1.8 12.4 0.5 16.8 3.7 7.3 6.7 13.2 1.4 23.1l-3 5.7-46.8 38.2-27.3 1z"/>
  <path class="cls-2" d="m25.6 112.9c-3.3-1.1-5.7-7.5-2.6-16.5 3-8.8 0.8-16.2-0.7-22.2 7.2 2.3 7.5 6.3 8.3 10.8 0.7 3.4 2.5 7.4 7 6.5 5-1.1 5.7-9.3 1.7-16.9-3.7-7-6.5-13 1.3-19.8-0.6 5.1 1.4 8.8 6.7 15.2 1 1.2 2.3 2.8 2.5 1.9 0.8-8.7 4-11.8 5.3-13.3 4.7-5 9.2-11.7 5.2-26.7l-1.2-4.5c3.4 1.3 10 7.2 11.4 14.2 1.9 9-2.5 14-0.9 21.8 1 4.6 3.4 8.4 8.5 8.3 5 0.1 7.3-2.5 11.8-6.7 3.5-2.9 4.5-6.6 4-10.4 1.5 1 2.4 4 2.9 5.5 0.8 6.3-3.9 9-4.9 14.7l-3.3 5.8-36.1 33-26.9-0.7z"/>
  <path class="cls-3" d="m72.5 80.1c-7.6-6.7-9.2-12.7-6.9-23.9-6 4.2-8.3 9.9-8.6 15.9-0.4 6-1.4 9.8-5.4 13.5-1.1-3.2-3.1-8-6.8-10.6 3 8.1 1.8 13.6-1.5 20.8l-3.2 6.8-10 7.6-0.8-1.3c-3.7-2.7-2.8-8.7 1.6-15-0.5 6.6 2.6 9.2 7.1 8.7l3.6-1c5.7-6.7 14.8-9.8 21.8-8.5l12.5-9-3.4-4z"/>
  <path class="cls-1" d="m30.1 43.2c-0.6 1.7-2.8 4.2-3.3 4.2-1.2 0.2-1.9-2.5-0.3-4.8 1.8-3 3.4-5 3.4-7.5 1.6 1.8 2 6 0.2 8.1z"/>
  <path class="cls-1" d="m107.4 89.4-2.9-4.4c4.6 1.8 8 6.8 8.6 11.6 0.5 4.3-1.3 10.3-4.5 12l-6.2 1.2 5-20.4z"/>
  <path class="cls-1" d="m107.4 89.4 0.5-1.4c2.2-1.1 5-7.4 5-15.1 1.5-2.5 1.7-3.5-0.3-1.3 2.9-5.6 3.4-13-5.2 17.8z"/>
  <path class="cls-1" d="m107.4 89.4-0.3-1.3c0-2.5 5.4-7.7 4-16 3-2.2 7.9-10.5 1-21.5 2 1.5 5.9 6.2 0.8 22.3l-5.5 16.5z"/>
  <path class="cls-1" d="m6.5 109.2c2.6 6.2 6.3 10.2 9.4 12.9 0.5 1.1-9.8-1.5-10.3-9.5l0.5-3.4h0.4z"/>
  <path class="cls-1" d="m83.6 133.2c14-4.6 31-11.3 34-35 1-3.6 1-7.8 0.8 2.2 0 7-6.3 28.5-34.8 32.8z"/>
  <path class="cls-4" d="m138.1 65.6c-1.6 0-3 1-5.6 2.4l-35 19.6 2.1 4.8 35.3-19c2.7-1.5 4.7-2.5 4.1-4l-0.9-3.8z"/>
  <path class="cls-5" d="m105.1 85.5 25.5-14.6c4.3-2.3 5.5-3.7 6.3-3.3 1.5 0 2.6 2.4 1.6 3.3-2.4 2.2-32 18.5-32 18.5l-1.4-3.9z"/>
  <path class="cls-4" d="m105.9 89 29.6-17.4 1-0.5h0.4c-1.3 1.1-29.9 17.8-29.9 17.8l-1.1 0.1z"/>
  <path class="cls-4" d="m97.9 76.4c-4.9-1.4-9.5-1-14.3 2.2-4-0.2-7.2 0.4-11.1 4.3-3.9-0.3-8.1 1.1-10.5 4.5-4.1-0.2-7.5 1-10.5 6-4 0-8.5 1.8-10.5 6.2-2.9 0.3-8 3-9.6 7.4-2.4 0.9-8.4 5.1-8.9 11.2l2.3 11.2 8.3 8.6c4.8 2.6 10.5 2.9 15.5-1.1 4.4 1.1 7.8 1 10.5-2.9 3.4 0.9 6.5-0.1 9.8-2.9 4.1 0.9 8.2 0.5 12-4.7 3.7-0.3 7.6-1 11.1-7 4.4-1 9.6-3 10.4-10 3-0.2 4.7-1 5.7-4.3 2-6.5-3-25.5-10.2-28.7z"/>
  <path class="cls-6" d="m86.1 79.9c6.8-3 12.8-3 18.9 6.5 3.5 5.4 5.1 15 1.4 19.6l-3.9 1.2-16.4-27.3z"/>
  <path class="cls-1" d="m87.5 80.4c4.6 0 9.5 2.2 13.6 9.2 3.3 5.5 2 7.6 1.4 17.5-2.1 7.5-6.1 9.1-9.9 9.9l-5.1-36.6z"/>
  <path class="cls-2" d="m74.6 84c4.3-3.6 10.8-4.9 18.3 2.9 4.5 4.7 8.7 13.5 6.5 19.2l-3.4 1.8-21.4-23.9z"/>
  <path class="cls-1" d="m64.1 88.1c3.8-2.5 9.4-4.7 16.5 1.5 4.3 3.8 9.5 11.8 7.8 16l-2.9 1.5-21.4-19z"/>
  <path class="cls-6" d="m54.1 94c3-4 8.5-6.4 16-0.9 4.9 3.5 11 11.1 10 15.9l-2 1.6-24-16.6z"/>
  <path class="cls-1" d="m43.4 99.6c2-3 7.6-6.2 16-2 5.5 2.9 11.1 11.4 11.1 15.6l-2.4 3.4-24.7-17z"/>
  <path class="cls-6" d="m34.1 106.9c3.5-5.3 10.3-7.8 17.3-2.3 4.6 3.5 9.5 11 8.6 16l-4.5 1.5-21.4-15.2z"/>
  <path class="cls-1" d="m28.1 111.6c2.9-3.5 9.3-5 15.5 0 3.8 3.3 8.5 11 6.5 15.8l-6.2 1.8-15.8-17.6z"/>
  <path class="cls-6" d="m27.9 112.1c3.2-3.5 10.5-5.5 16 1.9l0.7 4-10.1-0.6-6.6-5.3z"/>
  <path class="cls-1" d="m74.6 84.1c7.3 0.3 13.8 7.3 16.5 13 3.3 6.5 2.8 12.5 1.4 19.9-3 5.9-5.6 6.2-10.1 7l-7.8-39.9z"/>
  <path class="cls-6" d="m59.9 132.4c3.1-4.3 5.1-11.5-0.3-20.5-4-6.8-10.5-11.5-16.2-11.9 4.1-3.6 11.2-4.6 18.1 1.6 4.4 4 9 10.3 9.4 17.3 0.5 7-4 14-11 13.5z"/>
  <path class="cls-1" d="m70.4 128.9c2.6-3.5 4.5-11.8-0.8-21-3.2-5.5-10-12.8-15.5-13.9 4.5-2.9 10.5-2.9 16.5 2 5 4 9.8 11 10.8 18 1.1 7.2-3 15.9-11 14.9z"/>
  <path class="cls-4" d="m24.6 125.6c-2.2 1.5-16.1 8.8-20.1 11-3 1.6-4.9 4.5-4.1 5.8 0.2 0.6 5.7 1.5 10.5-0.8l24.1-12.7c2.9-1 1.5-8.3-3.5-7.3l-6.9 4z"/>
  <path class="cls-5" d="m31.6 123.6c0.9 0 2.8 2.5 2 3l-21.2 11.6c-3.9 2-6 3-9.5 3h0.7c-0.6 0-0.7 0-1-0.1 1.4-2 3-3.2 4.3-4l23.7-13.2 1-0.3z"/>
  <path class="cls-7" d="m26 114.6c4.9-3.5 11.9 1 14.4 6 2.6 5.3 3.2 14.8-2 16.5-3.3 1-7.9-3.1-10.3-7.5l5.8-2.2c1.5 1.2 3.1-0.5 1.6-3-1.1-2-3-3-5-1.5l-5 2.1c-1.6-3.1-2.6-8.1 0.5-10.4z"/>
  <path class="cls-6" d="m39.6 137.9c4.5-1.5 6-10.8 1.8-17.8-2.8-5.5-8-9-13.4-8 4.4-4 11.6-4.5 17 1.5 4.6 5 6.9 11 5.4 17.5-1 4.5-7.4 7-10.8 6.8z"/>
  <path class="cls-4" d="m8.1 140.1 25-14.2v0.3c0 0.7-23 13.9-25 13.9z"/>
  <path class="cls-7" d="m27.6 115.4c4.9-2.3 10.8 2.5 12.4 7.5 1.9 4.7 1.5 12.5-3 14-2.1 0.5-5.6-2.5-7.1-5.7l4-2.2c1.7 1.4 2.5 0 2.5-2.4 0-2.6-2.8-6-5.9-4.5l-4.5 2.3c-1.6-3-2-7 1.6-9z"/>
  <path class="cls-1" d="m27.9 120v-1.4c3.7-2.7 9 0.4 11.5 6.8 1.2 5.2-0.3 8.6-2.4 8.2l-2.6-0.5c1.5 0 4.5-0.5 2.7-6.9-2-6.2-7.5-10-9.2-6.2z"/>
  <path class="cls-4" d="m27.6 120.4c-0.2-2.5 5.9-6 11.3 4-4.3-6.5-10.5-8.8-11.3-4z"/>
  <path class="cls-4" d="m32.6 131.6c2.8 1.5 4.8 1 4.5 1-0.2 2-3.6 0.8-4.5-1z"/>
  <path class="cls-4" d="m44.6 135.2c2.3-2.6 3.4-4.6 3.9-7.1 0.4 4.5-1.9 6.8-3.9 7.1z"/>
  <path class="cls-4" d="m55.4 132.4c2-3.4 2.2-5 2.6-8.3 0.6 3.8-0.6 7.5-2.6 8.3z"/>
  <path class="cls-4" d="m63.1 129.4c0.9-2.8 1.8-4.8 2.5-7-0.1 2.7 0 6.2-2.5 7z"/>
  <path class="cls-4" d="m66.6 127.1c1.3-3 1.5-4.7 2.3-7.5 0.5 2.5-0.5 5.8-2.3 7.5z"/>
  <path class="cls-4" d="m73.9 125.9c1.2-2.8 1.2-4.5 2-7.3 0.5 2.8-0.3 6-2 7.3z"/>
  <path class="cls-4" d="m77.5 123.4c1.1-3.4 1.9-6 2.4-8.8 0.7 3-0.8 7-2.4 8.8z"/>
  <path class="cls-4" d="m84.6 121.1c1.3-3.7 1.5-5.7 2.3-9.5 0.5 3.3-0.3 8-2.3 9.5z"/>
  <path class="cls-4" d="m87.5 117.1c0.6-3.1 0.6-6 0.9-8.7 1 3 1 7.5-0.9 8.7z"/>
  <path class="cls-4" d="m94.1 114c0.5-2.1 0.8-3.4 1-5.4 0.3 1.8 0.5 4.6-1 5.4z"/>
  <path class="cls-4" d="m97 110c0.1-2.6 0.4-4.1 0.6-6.9 0.5 2.5 0.8 5.3-0.6 6.9z"/>
  <path class="cls-4" d="m104.6 99.6c-0.5-4.5-3.2-11.7-7-15.7 2.8 1 6.8 10.3 6.3 15.7h0.7z"/>
  <path class="cls-4" d="m104.6 99.6c-0.5-4.5-3.2-11.7-7-15.7 2.8 1 6.8 10.3 6.3 15.7h0.7z"/>
  <path class="cls-4" d="m104.6 99.6c-0.5-4.5-3.2-11.7-7-15.7 2.8 1 6.8 10.3 6.3 15.7h0.7z"/>
  <path class="cls-4" d="m104.6 101.6 0.8-2c-0.3-4.5-1-8-4.3-12l3.5 14z"/>
  <path class="cls-4" d="m104.6 103.4 0.8-1.8c-0.3-4.5 1-4.5-0.3-9.5l-0.5 11.3z"/>
  <path class="cls-4" d="m104.6 103.4 0.8-1.8c-0.3-4.5 1-4.5-0.3-9.5l-0.5 11.3z"/>
  <path class="cls-4" d="m104.6 103.4 0.8-1.8c-0.3-4.5 1-4.5-0.3-9.5l-0.5 11.3z"/>
  <path class="cls-4" d="m104.6 103.4 0.8-1.8c-0.3-4.5 1-4.5-0.3-9.5l-0.5 11.3z"/>
  <path class="cls-4" d="m104.6 103.4 0.8-1.8c-0.3-4.5 1-4.5-0.3-9.5l-0.5 11.3z"/>
  <path class="cls-4" d="m104.9 103.1c0.5-2.2 0.5-5.2 0.5-7.7 1.1 2.6 1.1 6.7-0.5 7.7z"/>
  <path class="cls-1" d="m88.6 80.4c6-0.8 10.8 1.2 16 8.2l0.5 3.5c-2.7-2.7-8.2-10.5-16.5-11.7z"/>
  <path class="cls-2" d="m66.1 89.1c5-2.7 11.3-1.7 16.8 4.5l3 5c-3.8-4.2-9.8-10.5-19.8-9.5z"/>
  <path class="cls-2" d="m56.6 94.1c5.5 0.3 8.3 2 10.3 4.9-2.8-2.4-5.8-3.9-10.3-4.9z"/>
  <path class="cls-2" d="m45.6 107.6c3.3 1.3 6.9 5 8 10.8-1.2-2.8-3.7-7.3-8-10.8z"/>
  <path class="cls-2" d="m33.6 111.1c5.5-0.7 10.8 3 13 6.5-2.5-1.5-5.6-6.5-13-6.5z"/>
  <path class="cls-1" d="m34.5 106.6c3.1-2.7 9-6.7 18 0.8l3.6 4.2c-5.6-5.2-12.6-10.2-21.6-5z"/>
  <path class="cls-2" d="m68.9 99.6c2.7 0.8 9 8.3 9.7 14.4-1.5-4.1-5.5-11.4-9.7-14.4z"/>
  <path class="cls-2" d="m69.1 100.9 3.9 6.5c-1.1-2.5-2.9-5-3.9-6.5z"/>
  <path class="cls-1" d="m77.9 83.4c6.2-1.3 14.6 2.2 19.2 13-3-4.8-7.7-11.3-19.2-13z"/>
  <path class="cls-1" d="m82.5 85.6 4.1 3.4c-1.7-1.6-3.1-2.6-4.1-3.4z"/>
  <path class="cls-1" d="m78.9 83.9c3 0.1 6.2 1.5 8 3.7-2.3-1-4.8-2.6-8-3.7z"/>
  <path class="cls-1" d="m88.4 80.1c3.1 0 5.5 2 7.5 4.3-1.8-0.8-4.3-3-7.5-4.3z"/>
  <path class="cls-1" d="m97.5 80.4c2.6 0.5 5.9 4.6 7.1 7.7-2-1.7-3.7-5.7-7.1-7.7z"/>
  <path class="cls-1" d="m58.1 103.4c3.3 1.5 7.4 7 9.9 12 0.9-2.3-2-11-9.9-12z"/>
  <path class="cls-1" d="m68.1 88.4c2.8-1 6 0 8.4 3-2.5-1-4.9-2.8-8.4-3z"/>
  <path class="cls-4" d="m50.6 99.1c1.8-0.1 4 0.9 5.3 2.3-2-0.5-4.3-1.8-5.3-1.8v-0.5z"/>
  <path class="cls-4" d="m40.1 104.9c1.3-0.3 3.4-0.3 4.3 0.7-1.5 0-3-0.7-4.3-0.7z"/>
  <path class="cls-1" d="m34.6 112.4c4 1 8.5 4 14.3 13 1-5.5-5.8-15.5-14.3-13z"/>
  <path class="cls-1" d="m36.5 113.6c3.9 1.8 10.1 7.8 9.1 14.5l-1.7 5.3c1.2-4.8-0.8-16.3-7.4-19.8z"/>
  <path class="cls-2" d="m36.6 112.9 7 7.7c-1.1-3.2-3.5-6.2-7-7.7z"/>
  <path class="cls-1" d="m69.1 99.6c4.8 3.3 8.4 8 9.5 14.4 1.3-3.6 2.3-7.4-2.7-12.1l-6.8-2.3z"/>
  <path class="cls-1" d="m58.1 103.4c4.4 5 8 13.6 6.3 20.7 2-4.1 3.2-8.7 1.6-13l-4.4-6.1-3.5-1.6z"/>
  <path class="cls-1" d="m47 108.6c3.6 3.5 8.6 8.4 8 15.4 1.9-4.6 2.9-6.6 0.6-10.9l-3.1-2.7-5.5-1.8z"/>
  <path class="cls-4" d="m55.5 117.9 0.4 2.7-0.4 2.5-0.4-0.2 0.4-5z"/>
  <path class="cls-4" d="m54.5 131.9c1-1.9 1.9-3.8 1.9-5.8 0.2 1.8 0.2 4.5-1.9 5.8z"/>
  <path class="cls-4" d="m54.1 126.1 0.5 0.5-0.5 2v2.5l0.9-3-0.9-2z"/>
  <path class="cls-1" d="m74.6 90.4c3.8 2 10.9 7.6 13 15.2 1-6-2.5-13.5-13-15.2z"/>
  <path class="cls-4" d="m78.4 93.9c2.7 1.7 5.1 3.7 5.7 7.7-2.2-3-3.7-5.7-5.7-7.7z"/>
  <path class="cls-1" d="m68.4 94.9c3.2 2 10 7.5 11.7 13.7 0.8-4.5-2.6-12.2-11.7-13.7z"/>
  <path class="cls-1" d="m71.6 89.9c3.4 1.5 10.8 7 12.5 12.7 0.8-5-4.2-11.2-12.5-12.7z"/>
  <path class="cls-1" d="m88.6 90.4c3.9 1.5 8 7.2 9.5 13.2 1.3-4.6-1.2-12.5-9.5-13.2z"/>
  <path class="cls-4" d="m74.6 106.4 1.5 2.6 0.3 3.9-0.3 0.3-1.5-6.8z"/>
  <path class="cls-6" d="m28.1 146.9"/>
  <path class="cls-6" d="m19.1 160.6h8.9c0.4 0 0.5-0.2 0.5-0.5v-2c0-0.2-0.1-0.5-0.5-0.5h-5.4v-2.5h4.4c0.4 0 0.5-0.1 0.5-0.5v-2c0-0.2-0.1-0.5-0.5-0.5h-4.4v-2.1h5.4c0.4 0 0.5-0.1 0.5-0.4v-2.1c0-0.3-0.1-0.6-0.5-0.6h-8.1c-0.4 0-0.5 0.2-0.5 0.5l-0.3 13.2z"/>
  <path class="cls-6" d="m31.9 160.6h2.6c0.4 0 0.5-0.2 0.5-0.5l-0.1-7.5 3.2 5.8h0.5l3.5-5.8v7.5c0 0.3 0.3 0.5 0.5 0.5h2.4c0.4 0 0.4-0.2 0.4-0.5v-12.6c0-0.4 0-0.6-0.5-0.6h-2.5c-0.3 0-0.5 0.2-0.8 0.5l-3.2 6-3.3-6c-0.2-0.3-0.5-0.5-0.7-0.5h-2.3c-0.2 0-0.5 0.2-0.5 0.6l0.3 13.1z"/>
  <path class="cls-6" d="m51 142.9h-0.5c-0.6 0-0.6 0.5-0.6 1v0.7c0 0.5 0.2 1 0.6 1h1.1c0.8 0 1-0.5 1-1v-0.7c-0.1-0.8-0.5-1-1.6-1zm-1.5 4.6v12.6c0 0.3 0.1 0.5 0.5 0.5h2.4c0.2 0 0.5-0.2 0.5-0.5v-12.6c0-0.4-0.3-0.6-0.5-0.6h-1.9c-0.6 0-1 0.2-1 0.6z"/>
  <path class="cls-6" d="m56.9 160.1c0 0.3 0.2 0.5 0.5 0.5h2.2c0.5 0 0.5-0.2 0.5-0.5v-7.2l5.4 7.2c0.1 0.3 0.4 0.5 0.6 0.5h1.5c0.5 0 0.3-0.2 0.3-0.5v-12.7c0-0.3-0.3-0.5-0.5-0.5h-2c-0.4 0-0.8 0.2-0.8 0.5l0.3 7-4.8-7c-0.2-0.3-0.6-0.5-1-0.5h-1.5c-0.5 0-0.7 0.2-0.7 0.6v12.6z"/>
  <path class="cls-6" d="m75.1 143.5v1.4c0 0.5 0.3 0.5 0.8 0.5h1c0.5 0 0 0 0 0 0.5 0 0 0 0 0h0.5-0.5c0.2 0 0 0 0 0h0.5c0.5 0-0.5 0 0 0 0.2 0 0 0 0 0 0.2 0 0 0 0 0 0.7 0 0.5-0.3 0.5-0.5v-1.4c0-0.4-0.3-0.6-0.5-0.6h-2.3v0.6zm3.3 3.1c-3.9 0-7.4 2.5-7.4 7 0 3.3 3 7 6.5 7 3.6 0 6.6-2.5 6.6-6.6 0-3.9-2.7-7.4-5.7-7.4zm-0.9 3c2.1 0 3.6 1.5 3.6 4 0 2.3-1.7 3.8-3.6 3.8-2.1 0-3.6-1.5-3.6-3.8 0-2 1.5-4 3.6-4zm1.1-6.1v1.4c0 0.2 0.5 0.7 0.8 0.7h1.1c0.4 0 0.5-0.2 0.5-0.7v-1.4c0-0.4-0.4-0.6-0.5-0.6h-1.4c-0.5 0-0.5 0.2-0.5 0.6z"/>
  <path class="cls-6" d="m87.6 160.1c0 0.3 0.5 0.5 0.5 0.5h2.4c0.4 0 0.1-0.2 0.1-0.5v-7.5l5.4 7.5c0.1 0.3 0.4 0.5 0.6 0.5h1.8c0.2 0 0-0.2 0-0.5v-12.7c0-0.3-0.3-0.5-0.5-0.5h-2c-0.4 0-0.5 0.2-0.5 0.5l0.1 7-4.9-7c-0.2-0.3-0.5-0.5-1-0.5h-1.5c-0.2 0-0.5 0.2-0.5 0.6v12.6z"/>
  <path class="cls-6" d="m103.6 143.5v1.4c0 0.5 0.4 0.5 0.8 0.5h1.1c0.4 0 0 0 0 0 0.4 0 0 0 0 0h0.4c0.2 0 0 0 0 0 0.2 0 0 0 0 0 0.2 0 0 0 0 0 0.7 0 0.5-0.3 0.5-0.5v-1.4c0-0.4-0.3-0.6-0.5-0.6h-2.3v0.6zm3.5 0v1.4c0 0.2 0.3 0.7 0.8 0.7h1c0.5 0 0.5-0.2 0.5-0.7v-1.4c0-0.4-0.5-0.6-0.5-0.6h-1.4c-0.4 0-0.4 0.2-0.4 0.6zm-5 4v7.5c0 3.1 2 5.6 5.4 5.6s5.4-2 5.4-5v-8.1c0-0.4 0-0.6-0.4-0.6h-2.4c-0.2 0-0.5 0.2-0.5 0.6v7.4c0 1.7-1 2.5-2.2 2.5-1.3 0-2-1-2-2.5v-7.4c0-0.4-0.4-0.6-0.5-0.6h-2.3c-0.2 0-0.5 0.2-0.5 0.6z"/>
  <path class="cls-6" d="m22.9 178.4c-0.5 0 0.2 0 0.2 0.5v5c0 0.5-0.7 0.5-0.2 0.5h6c0 2.5-2.3 5-5.8 5-5 0-8.2-2.8-8.2-8.3 0-4 2.6-7.7 7.5-7.7 2.7 0 5 1 6.5 2.5h0.6l4.4-4.8c0.5-0.2 0-0.5 0-0.5-2.4-2.5-6.3-4-10.9-4-8.9-0.5-16 6-16 14.5 0 7.5 5.4 14.5 13.9 15.5 10 0.3 15-5 15-13v-4.5c0-0.7-0.4-0.7-0.8-0.7h-12.2z"/>
  <path class="cls-6" d="m37.6 195.6c0 0.5-0.1 0.8 0.3 0.8h7.7c0.4 0 0.5-0.3 0.8-0.8l1.5-5h10.7l1.5 5c0.3 0.5 0.3 0.8 0.8 0.8h7.6c0.4 0 0.4-0.3 0.1-0.8l-11-28.2c-0.1-0.5-0.1-0.5-0.5-0.5h-8c-0.2 0-0.5 0-0.6 0.5l-10.9 28.2zm12.5-11.7 3.3-9.3 3.2 9.3h-6.5z"/>
  <path class="cls-6" d="m71.9 167.4v28.2c0 0.5 0 0.8 0.5 0.5h19.1c0.4 0.3 0.6 0 0.6-0.5v-6c0-0.5-0.2-0.5-0.6-0.5h-11.4v-21.7c0-0.5 0-0.5-0.5-0.5h-7.1c-0.4 0-0.6 0-0.6 0.5z"/>
  <path class="cls-6" d="m94.4 195.6c-0.3 0.5 0 0.8 0.2 0.8h7.8c0.5 0 0.5-0.3 0.7-0.8l1.5-5h10.4l1.6 5c0 0.5 0.3 0.8 0.8 0.8h7.6c0.5 0 0.5-0.3 0.5-0.8l-11-28.2c-0.1-0.5-0.1-0.5-0.6-0.5h-7.8c-0.5 0-0.6 0-0.7 0.5l-11 28.2zm11.7-11.7 3.3-9.3 3.6 9.3h-6.9z"/>
  <path class="cls-6" d="m112.9 216.1"/>
  <path class="cls-6" d="m8.6 202.1v14c0 0.3 0.3 0.5 0.4 0.5h2.9c0.5 0 0.2-0.2 0.2-0.5v-3.7l1.3-1.8 3.7 5.5c0.3 0.5 0.5 0.5 0.8 0.5h3.5c0.5 0 0.1-0.5 0-0.5l-5.8-7.5 5.4-6.2c0.4-0.3 0.4-0.3-0.1-0.3h-3.5c-0.3 0-0.5 0-0.8 0.3l-4.5 5.5v-5.5c0-0.3-0.2-0.3-0.6-0.3h-2.9z"/>
  <path class="cls-6" d="m31.4 201.9c-4.3 0-7.8 3.2-7.8 7.1s3 7.9 7.8 7.9c4.2 0 7.2-3.3 7.2-7.3s-3.2-7.7-7.2-7.7zm-0.3 3.5c2.4 0 4 1.7 4 4.2 0 2.3-1.7 3.8-4 3.8-2.2 0-3.7-1.5-3.7-4 0-2.3 1.5-4 3.7-4z"/>
  <path class="cls-6" d="m42.9 202.6v13.5c0 0.3 0.2 0.5 0.5 0.5h2.7c0.4 0 0.4-0.2 0.4-0.5v-3.7l1.4-1.5 3.7 5.2c0.3 0.5 0.3 0.3 0.8 0.5h3.2c0.5 0 0.3-0.2 0-0.5l-5.2-7.5 5-6c0.2-0.2 0.2-0.5-0.3-0.5h-3.2c-0.3 0-0.5 0-0.8 0.3l-4.5 5.5v-5.3c0-0.2-0.2-0.5-0.6-0.5h-2.6c-0.3 0-0.5 0-0.5 0.5z"/>
  <path class="cls-6" d="m65.5 201.9c-4.1 0-7.9 3.2-7.9 7.1s2.8 7.6 7.8 7.6c4.2 0 7.2-3 7.2-7.2 0-3.8-3.2-7.5-7.1-7.5zm-0.5 3.5c2.4 0 4.1 1.5 4.1 4 0 2.2-1.7 4-4 4-2.2 0-3.7-1.5-3.7-4 0-2.3 1.5-4 3.6-4z"/>
  <path class="cls-6" d="m76.9 202.6v13.5c0 0.3 0.2 0.5 0.5 0.5h3c0.2 0 0.2-0.2 0.2-0.5v-4.7h2l2.5 4.7c0.3 0.3 0.4 0.3 0.5 0.5h3.3c0.5 0 0.2-0.2 0-0.5l-2.8-5.2c1.8-0.8 2.8-2 2.8-4.3 0-2.7-1.8-4.5-5.3-4.5h-6.7v0.5zm3.7 2.8h2.8c1.2 0.2 2 0.7 2 1.7 0 1.5-1 1.8-2 1.8h-2.8v-3.5z"/>
  <path class="cls-6" d="m93.6 202.6v13.5c0 0.3 0.3 0.5 0.5 0.5h8.9c0.4 0 0.6-0.2 0.6-0.5v-2.5c0-0.2-0.2-0.5-0.6-0.5h-6v-2.7h5.4c0.2 0 0.2-0.3 0.2-0.5v-2.3c0-0.2-0.2-0.5-0.2-0.5h-5.4v-2h5.9c0.5 0 0.5-0.2 0.5-0.5v-2c0-0.5-0.3-0.5-0.5-0.5h-9c-0.3 0-0.3 0-0.3 0.5z"/>
  <path class="cls-6" d="m113.1 215.6v0.5c0.8 0.5 1.8 0.5 2.5 0.5l-0.5 2c-0.1 0.3 0.3 0.3 0.5 0.3 0.5-0.3 2.3-0.8 1.8 0.2-0.3 0.8-1.8 0-3.5 0v1c1.7 1.3 5.2 1 3-1.5l-0.8-0.5 0.5-1.2c1.3-0.3 3.3-0.8 4-2.8l-1-2.2c-1 1-2.2 1.5-3.7 1.5-2.3 0-4-1.5-4-4 0-2.3 1.5-4 3.6-4 1.5 0 2.6 0.5 3.4 1.5l1.7-1.8c0.3-0.2 0.5-0.5 0.3-0.7-1.3-1.5-3-2.5-5.5-2.5-4.3 0-7.5 3-7.5 7.1 0 2.9 1.7 5.9 5.2 6.6z"/>
  <path class="cls-6" d="m114.6 216.6-0.7 2h1.5l0.2-2h-1z"/>
  <path class="cls-6" d="m115.1 216.4-0.5 2 1 0.2 1-2-1.5-0.2z"/>
</svg>