<svg xmlns="http://www.w3.org/2000/svg" viewBox="0 0 160 161">
<!-- SVG created with Arrow, by QuiverAI (https://quiver.ai) -->
  <style type="text/css">.cls-0 {fill:#0B1F2C;}
.cls-1 {fill:#F5B83E;}
.cls-2 {fill:#F2B13A;}
.cls-3 {fill:#F79D30;}
.cls-4 {fill:#D85121;}
.cls-5 {fill:#FCBE42;}
.cls-6 {fill:#2B1E1C;}
.cls-7 {fill:#F3E7C8;}
.cls-8 {fill:#F89B2D;}</style>
  <!-- background removed for transparency -->
  <path class="cls-2" d="m80 1.7c-42.8 0-77 34.8-77 78.4 0 43.7 33.6 79.6 77 79.8 42.8 0.2 78-34.8 78-79.8 0-39.8-33.3-78.4-78-78.4zm0 152.7c-40.2 0-72.4-32.4-72.4-74.3 0-38.9 31.7-73.5 72.4-73.5 40.8 0 72.9 33.1 72.9 73.5 0 41.2-31 74.3-72.9 74.3z"/>
  <path class="cls-2" d="m80 9.1c-38.5 0-70.3 33.2-70.3 71 0 37.2 28.7 71.7 70.3 71.8 41.2 0.2 70.8-33.2 70.8-71.8 0-35.9-30.4-71-70.8-71zm-0.5 141.1c-39.5 0-68.3-31.2-68.3-70.1 0-35.5 29.5-69.4 68.3-69.4 38.4 0 69.4 31.9 69.4 69.4 0 38.5-27.8 70.1-69.4 70.1z"/>
  <path class="cls-4" d="m53.7 81.8 0.3 0.3 1.7 0.7 6.5-5.1 4.5-5.3s2.9-5.6 1.8-12.1l-1.1-3.6c2 1 4 6.2 4 6.2 2.8-1.3 3.2-6 3.2-8.8 0-2.9 2.3-7.2 5.1-8.9-2 8.1 0.6 11.4 5.1 15.4l13.5-1.5c1.6-2.2 3.6-5.4 4.1-7.9 1.5-7.8-5.7-10.9-2.3-19.5-2 1-5 3.9-5 7.9-0.1 2.3 0.6 5.3-1.6 7.1-3.3 2.4-6.9-1.2-5.5-5.1 0.8-2.2 2.6-4.2 3-7.6 0.7-6.1-6.4-10.1-6.4-10.1 3.2 5 2.4 8.3 1.1 11.6-1.6-7.4-7.7-9.1-7.2-16.1 0.2-2.3 1.4-4.3 2.9-6.5-2.2 0.7-3.8 1.5-5.3 3.1-8.7 8.4-2.5 16.4-1.5 19.9 1.3 4.7-1.4 9.1-4.7 7.8-4-1.3 3-7.3-1.7-12.1-1-1-2.2-1.7-3.6-2.5 2 3.5 1.5 6.6-1 9.8-2.2 2.7-5.5 4.8-5.5 9-0.2 6.1 4 8.2 4 12 0 1.2-1.4 2.5-2.7 1.2-0.8-7.4-6.9-7.1-7.1-16.6-2.1 2.2-3.6 5.9-3.4 8.7 0.5 6.2 4.3 8.4 2.2 16.2-0.9-2.2-2.2-4.2-4.6-5.4 2 4.6-0.4 12.9 5.2 17.1l2 0.7z"/>
  <path class="cls-5" d="m75.7 28.4c1.8 3.7 2.4 7.7 1.7 11.5-1.3 6.5-6.5 5.8-7 15.2-3.5-2.7-6.2-7.2-5.4-10.9-6.8 5.9-0.1 10.5 0.5 15.7 0.9 7.5-6.4 9-7.3 2-0.3-2.8-2.3-4.5-4.8-5.5 3.8 9.8-1 13.2 0.2 18.2 0.8 3.5 2.8 5 3.8 5.3l8.3-7.2s4.4-7.3 1.7-16c2.3 1 4 6.2 4 6.2 2.7-1.3 3.2-6 3.2-8.8 0-2.9 2.3-7.2 5.1-8.9-2 8 0.6 11.4 5.1 15.4l10.9-1.7c0.3-4.9 6.4-7.8 1.7-14.8 0.3 4.6-2 5.5-5.3 8.6-5.6 5-11.5 0.4-9.9-8 0.8-4.3 1.4-7.5-1.8-11.8-1.8-2.3-3.3-3.8-4.7-4.5z"/>
  <path class="cls-5" d="m58.6 67.9c-1.2 1.7-3.2 5.2-0.7 9l3.8-3.5c-2.8-1.5-3.2-3-3.1-5.5z"/>
  <path class="cls-4" d="m104.6 62.4 1 2.3 17.3-9.6 0.2-0.7c-1-3-1.7-2-10.9 3.3l-7.6 4.7z"/>
  <path class="cls-6" d="m106.5 66.6 15.6-8.9c1.5-1 2-1.3 1-3.6-1.4-0.1-2.5 0.9-6 2.8l-11.6 7.1 1 2.6z"/>
  <path class="cls-6" d="m106.6 65.1c-2.2-4.2-5.6-7.5-9.7-7.7-1.9-0.2-3.9 0.3-6 1.5-2.7-0.2-5.2 0.5-7 2.5-2.3-0.2-4.5 0.7-6.3 2.6-2.2 0-4.4 0.9-6 3.6-2 0-5.2 1.3-6.5 3.6-2.4 0.5-4.7 2.4-6 4.5-2.2 1-5.9 4.5-5.5 7.7 0.1 1.3 0.8 3 2 4.2l2.1-1.2 0.8-0.5 1.2 0.3 0.2 1.4s-11.8 6.8-14.9 8c-1.4 0.6-3.3 0.6-2.8 1 0.8 0.4 2.9 0.8 4.3 0.1 2.7-1 11.4-5.8 11.4-5.8 1.8 2.5 4.3 4.8 7.3 4.8 1.7 0 3.2-0.6 4.2-1.8 2.5 1.2 5 0.5 6.3-1.7 2.5 0.7 4.4-0.1 5.9-1.8 2.5 0.5 5.3-0.7 7.1-3 2.9 0.2 5.7-1.2 7.2-4.2 3.8-0.3 6-2.6 6.5-5.8 4.5-0.3 5.7-5.8 4.2-12.3z"/>
  <path class="cls-4" d="m56.1 85.1s2-1.4 3.1-1.4c2.4-0.1 4.7 3.5 3.5 8.2 3.9-1.7 1.2-10.8-3.8-11.5-1.7 0-3.5 1.5-2.8 4.7z"/>
  <path class="cls-4" d="m59 78.1c4.9-0.2 8.5 8 7.9 13 1.7-2.7 0.2-7.7-1.7-10.7 1.9 1.7 3.7 3.6 4.8 5.8-0.4-4.6-5.6-10.8-11-8.1z"/>
  <path class="cls-4" d="m62.7 75.6c4.9 0.1 10.2 6.3 9.8 14 1.7-3.4-0.5-10.9-5.1-13.4 2.2 0.5 4.5 2.2 6.6 5 0.5-4.5-7.1-10-11.3-5.6z"/>
  <path class="cls-4" d="m68.2 71.6c3.4 0.5 10.5 5.6 10.4 16.1 2-5.8-0.9-11.6-4-14.6 3 1.3 5.1 4.5 6.5 7.6 0-6.6-7.7-13.8-12.9-9.1z"/>
  <path class="cls-4" d="m74 68.4c4.9 0.5 10.7 7.7 10.7 17.2 1.2-3.2 0.4-11-3.8-15.2 2.8 1.5 6 5.3 7 9.3 0.5-5.6-6.3-14.6-13.9-11.3z"/>
  <path class="cls-4" d="m80.5 65.4c3.9 0.7 10.6 7.5 11.1 16.8 1.3-5.3-1-10.6-3.2-13.5 1.8 1.4 3.3 3.4 4.8 5.5-0.1-5.5-7.7-12.6-12.7-8.8z"/>
  <path class="cls-4" d="m87 62.6c2.7 0.8 9.6 6 10.4 16.3 0.7-4-0.3-9.3-3.7-13.3 3 2 5.9 6.1 6.5 10 0.9-5.7-6.8-17-13.2-13z"/>
  <path class="cls-4" d="m94.2 60.4c2.7 1.2 6.3 4.8 7.9 9.7-0.2-3.2-1-5.7-2.4-7.7 2.4 2.2 3.9 5.2 4.7 9.3 0.8-4.3-3.8-13.5-10.2-11.3z"/>
  <path class="cls-4" d="m59.6 87.2s-0.9-1.3-1.1-1.3c-0.4 0-9.1 5.2-13.8 7.8-1.3 0.7-2.6 2.5-2.6 2.7 0.5 0.3 8.3-4 17.5-9.2z"/>
  <path class="cls-7" d="m53.2 99.6v7.1h5v-1.6h-3.3v-1.4h3v-1.5h-3v-1.1h3.3v-1.6l-5 0.1z"/>
  <path class="cls-7" d="m60.4 99.6v7.1h1.7v-4.3l2 3.2h0.4l1.9-3.4v4.5h1.6v-7.1h-1.6l-2.2 3.3-2-3.4-1.8 0.1z"/>
  <path class="cls-7" d="m70.4 97.6v1.3h1.6v-1.3h-1.6zm0 2v7.1h1.7v-7.1h-1.7z"/>
  <path class="cls-7" d="m74.5 99.6v7.1h1.7v-4.3l3 4.3h1.4v-7.1h-1.7v4l-2.8-4h-1.6z"/>
  <path class="cls-7" d="m84.2 99.9c-0.8 0.7-1.6 1.7-1.6 3.2 0 1.3 0.6 2.3 1.6 3.1 0.5 0.5 1.3 0.7 2 0.7 0.9 0 1.7-0.3 2.2-0.7 1-0.6 1.6-1.6 1.6-3.1 0-1.4-0.6-2.5-1.6-3.2-0.7-0.3-1.3-0.5-2.2-0.5-0.7 0-1.5 0.2-2 0.5zm0.2 3.2c0-1.4 0.8-2 1.8-2 1.2 0 2 0.8 2 2 0 1.3-0.7 2-2 2-1 0-1.8-0.7-1.8-2zm0-5.5v1.3h1.2v-1.3h-1.2zm2.2 0v1.3h1.4v-1.3h-1.4z"/>
  <path class="cls-7" d="m91.9 99.6v7.1h1.7v-4.3l3.1 4.3h1.3v-7.2h-1.6v4.1l-2.9-4.1-1.6 0.1z"/>
  <path class="cls-7" d="m100.1 99.6v4.3c0 1.8 1.1 3 3 3 1.8 0 3-1.2 2.9-3v-4.4h-1.6v4.2c0 1-0.5 1.4-1.3 1.4-0.7 0-1.2-0.4-1.2-1.4v-4.2l-1.8 0.1zm1.1-2.1v1.4h1.3v-1.4h-1.3zm2.2 0v1.4h1.2v-1.4h-1.2z"/>
  <path class="cls-8" d="m55 110.1c-4.9 0.1-8.8 3.5-8.8 8.9 0 4.4 3.3 8.6 8.7 8.5 4.5 0 7.7-2.5 7.7-6.9v-2.7l-0.1-0.2h-7.1v3.5h3.2c-0.1 1.5-1.2 2.5-3.4 2.5-2.8 0-4.6-2-4.6-4.7 0-2.6 1.9-4.4 4.1-4.4 1.4 0 2.7 0.5 3.9 1.5l3-3.2c-1.4-1.7-3.7-2.8-6.6-2.8z"/>
  <path class="cls-8" d="m70 110.4-6.3 16.8h4.7l1.1-2.8h6l1 2.8h4.6l-6.2-16.8h-4.9zm2.4 5 1.8 5.7h-3.6l1.8-5.7z"/>
  <path class="cls-8" d="m83.1 110.4v16.8h11.3v-3.6h-6.9v-13.2h-4.4z"/>
  <path class="cls-8" d="m102.1 110.4-6.2 16.8h4.6l1-2.8h6.1l1.1 2.8h4.8l-6.6-16.8h-4.8zm2.4 5 1.9 5.7h-3.8l1.9-5.7z"/>
  <path class="cls-7" d="m47.2 130.6v8.1h2v-2.1l0.9-0.9 2.3 3h2.3l-3.2-4.5 3-3.6h-2.3l-3 3.4v-3.4h-2z"/>
  <path class="cls-7" d="m57.6 131.4c-1 0.8-1.9 1.8-1.9 3.2 0 1.5 0.5 2.8 1.9 3.5 0.6 0.5 1.5 0.8 2.3 0.8 1 0 1.8-0.3 2.5-0.7 1.2-0.8 2-1.8 2-3.6 0-1.4-0.8-2.5-2-3.5-0.7-0.5-1.5-0.7-2.5-0.7-0.8 0-1.7 0.3-2.3 0.7v0.3zm0.3 3.2c0-1.4 0.8-2.4 2.2-2.4s2.3 1 2.3 2.4c0 1.6-0.9 2.3-2.3 2.3s-2.2-1-2.2-2.3z"/>
  <path class="cls-7" d="m66.7 130.6v8.1h2v-2.3l0.8-0.8 2.2 3.1h2.2l-3-4.3 2.8-3.8h-2.2l-2.6 3.1v-3.1h-2.2z"/>
  <path class="cls-7" d="m76.6 131.4c-1 0.8-1.7 1.8-1.7 3.2 0 1.5 0.7 2.8 1.7 3.5 0.8 0.5 1.6 0.8 2.6 0.8 0.9 0 1.8-0.3 2.4-0.7 1.1-0.6 1.6-1.6 1.6-2.3l0.2-1.3c0-1.4-0.8-2.5-1.8-3.4-0.6-0.3-1.5-0.8-2.4-0.8-1 0-1.8 0.2-2.6 0.7v0.3zm0.3 3.2c0-1.4 0.8-2.2 2.2-2.2s2.3 1 2.3 2.2c0 1.5-1 2.3-2.3 2.3-1.2 0-2.2-1-2.2-2.3z"/>
  <path class="cls-7" d="m85.6 130.6v8.1h2v-2.8h1.3l1.5 2.8h2.1l-1.6-3c1-0.5 1.5-1.3 1.5-2.5 0-1.3-1.2-2.6-2.7-2.6h-4.1zm2 1.8h1.5c0.8 0 1.1 0.5 1.1 1 0 0.8-0.3 1-1.1 1h-1.4l-0.1-2z"/>
  <path class="cls-7" d="m95.4 130.6v8.1h5.3v-1.8h-3.5v-1.5l3.2-0.2v-1.6h-3.2l0.2-1.4h3.2v-1.6h-5.2z"/>
  <path class="cls-7" d="m104.6 131.4c-1 0.8-1.5 1.8-1.5 3.2 0 2 1.3 3.6 3.5 4.1v0.4h-0.6l-0.5 1.3 0.5 0.3c0.4 0.2 0.6 0.4 1 0.4 0.7 0 1.5-0.4 1.5-1.2 0-0.5-0.1-1-0.6-1.2 1-0.1 1.7-0.6 2.5-1.5l-1.2-1.3c-0.6 0.7-1.1 1-2 1-1.2 0-2.2-1-2.2-2.3 0-1.2 0.7-2.4 2.2-2.4 0.7 0 1.4 0.4 1.9 1l1.3-1.5c-0.8-1-1.9-1.3-3-1.3-1 0-1.9 0.2-2.7 0.8l-0.1 0.2z"/>
</svg>